<?xml version="1.0" encoding="utf-8"?>
<!-- Generator: Adobe Illustrator 16.0.0, SVG Export Plug-In . SVG Version: 6.00 Build 0)  -->
<!DOCTYPE svg PUBLIC "-//W3C//DTD SVG 1.1//EN" "http://www.w3.org/Graphics/SVG/1.1/DTD/svg11.dtd">
<svg version="1.1" id="Layer_1" xmlns="http://www.w3.org/2000/svg" xmlns:xlink="http://www.w3.org/1999/xlink" x="0px" y="0px"
	 width="160.522px" height="225.031px" viewBox="0 0 160.522 225.031" enable-background="new 0 0 160.522 225.031"
	 xml:space="preserve">
<g>
	<path fill-rule="evenodd" clip-rule="evenodd" fill="#FFFFFF" d="M71.26,0c29.754,0,59.509,0,89.263,0
		c0,75.011,0,150.021,0,225.031c-25.504,0-51.007,0-76.511,0c5.31-0.313,9.596-2.835,13.467-6.245
		c0.993-0.875,2.238-1.604,2.896-2.688c1.188-1.958,2.567-2.229,4.715-1.786c2.538,0.523,5.251,0.925,7.789,0.601
		c12.108-1.55,21.122-8.028,28.314-17.722c3.804-5.126,5.951-10.435,5.968-16.832c0.024-9.781,0.266-19.507-5.109-28.326
		c-3.299-5.413-6.38-10.962-9.428-16.521c-0.739-1.349-1.444-3.012-1.346-4.475c0.602-8.971-1.103-17.603-2.84-26.341
		c-1.405-7.073-5.729-10.515-11.922-12.39c-2.834-0.857-5.854-1.325-8.816-1.49c-8.644-0.484-16.891,1.032-24.552,5.331
		c-1.802,1.011-3.934,2.122-5.88,2.062c-5.936-0.185-11.867-0.818-17.774-1.502c-1.619-0.188-3.393-0.854-4.667-1.848
		c-3.097-2.418-5.721-5.478-8.933-7.706c-7.107-4.927-13.11-10.775-16.958-18.583c-0.91-1.846-1.185-4.004-1.751-6.02
		c0.397-0.205,0.794-0.411,1.191-0.616c1.308,1.22,2.656,2.399,3.915,3.666c4.221,4.246,8.177,8.789,12.668,12.723
		c6.141,5.379,12.687,10.083,21.572,9.895c8.577-0.182,16.749-0.985,21.423-9.546c1.236-2.265,2.104-4.836,2.61-7.373
		c1.308-6.543,2.182-13.273-1.038-19.456c-3.795-7.286-8.161-14.274-12.245-21.412c-0.541-0.945-0.877-2.008-1.309-3.018
		c5.408,3.44,9.55,7.661,11.791,13.409c3.007,7.708,8.533,13.353,14.961,18.201c8.165,6.159,16.436,12.18,24.682,18.231
		c0.679,0.499,1.511,1.085,2.288,1.108c5.235,0.151,7.557,3.465,9.155,7.874c0.71,1.959,1.706,3.927,3.012,5.534
		c2.785,3.43,5.71,6.776,8.859,9.87c2.406,2.364,5.246,4.287,7.894,6.406c0.263-0.371,0.526-0.741,0.79-1.112
		c-1.191-0.928-2.383-1.856-3.867-3.013c1.29,0.093,2.14,0.155,2.237,0.161c-1.469-2.263-2.943-4.759-4.65-7.086
		c-1.283-1.75-2.876-3.273-4.309-4.917c-1.898-2.178-3.851-4.315-5.638-6.582c-1.877-2.379-3.67-4.835-5.32-7.374
		c-0.551-0.845-1.09-2.666-0.716-2.994c3.692-3.245,0.767-5.661-0.739-8.372c-3.12-5.62-6.646-11.099-9.005-17.034
		c-2.31-5.81-5.091-11.05-9.49-15.495c-2.974-3.004-5.487-6.484-8.58-9.347c-6.385-5.909-12.556-12.235-19.704-17.074
		C84.218,4.148,77.432,2.528,71.26,0z"/>
	<path fill-rule="evenodd" clip-rule="evenodd" fill="#FFFFFF" d="M79.511,225.031c-26.462,0-52.925,0-79.511,0
		c0-54.008,0-108.015,0-162.022c0.245,0.795,0.562,1.577,0.725,2.388C3.32,78.341,8.843,89.648,18.974,98.445
		c3.83,3.326,7.528,6.804,11.242,10.172c-6.228,12.32-4.484,21.388,5.727,28.723c3.733,2.682,7.797,4.948,11.881,7.076
		c2.531,1.319,3.271,3.038,3,5.722c-0.459,4.546-0.671,8.954-3.07,13.225c-2.552,4.542-1.474,5.953,3.286,8.31
		c1.222,0.604,2.565,2.188,2.747,3.479c1.821,12.958,3.549,25.933,4.977,38.939c0.375,3.415,1.722,5.718,4.658,7.014
		c2.473,1.092,5.092,1.933,7.724,2.563C73.885,224.322,76.718,224.593,79.511,225.031z"/>
	<path fill-rule="evenodd" clip-rule="evenodd" d="M79.511,225.031c-2.793-0.438-5.626-0.709-8.367-1.365
		c-2.632-0.63-5.251-1.471-7.724-2.563c-2.936-1.296-4.283-3.599-4.658-7.014c-1.428-13.007-3.155-25.981-4.977-38.939
		c-0.182-1.29-1.525-2.875-2.747-3.479c-4.759-2.356-5.837-3.768-3.286-8.31c2.399-4.271,2.611-8.679,3.07-13.225
		c0.271-2.684-0.469-4.402-3-5.722c-4.084-2.128-8.148-4.395-11.881-7.076c-10.21-7.335-11.955-16.402-5.727-28.723
		c-3.713-3.368-7.412-6.846-11.242-10.172C8.843,89.648,3.32,78.341,0.725,65.397C0.562,64.585,0.245,63.804,0,63.009
		c0-3.5,0-7,0-10.501c1.74-3.951,3.152-8.088,5.287-11.812c4.454-7.77,18.038-11.766,25.463-7.065
		c7.535,4.77,14.543,10.389,21.658,15.798c3.286,2.498,6.277,5.384,9.401,8.094c0.275-0.172,0.551-0.343,0.826-0.515
		c-1.738-3.501-2.974-7.386-5.311-10.426c-5.958-7.751-8.122-16.562-9.125-26.025c-0.666-6.282,1.535-10.99,6.159-14.734
		C57.05,3.643,60.113,1.925,63.009,0c2.75,0,5.501,0,8.251,0c6.172,2.528,12.958,4.148,18.364,7.808
		c7.148,4.839,13.319,11.165,19.704,17.074c3.093,2.863,5.606,6.343,8.58,9.347c4.399,4.445,7.181,9.686,9.49,15.495
		c2.359,5.935,5.885,11.414,9.005,17.034c1.506,2.711,4.432,5.127,0.739,8.372c-0.374,0.329,0.165,2.149,0.716,2.994
		c1.65,2.539,3.443,4.995,5.32,7.374c1.787,2.267,3.739,4.404,5.638,6.582c1.433,1.644,3.025,3.166,4.309,4.917
		c1.707,2.328,3.182,4.824,4.65,7.086c-0.098-0.006-0.947-0.068-2.237-0.161c1.484,1.157,2.676,2.085,3.867,3.013
		c-0.264,0.371-0.527,0.741-0.79,1.112c-2.647-2.119-5.487-4.042-7.894-6.406c-3.149-3.094-6.074-6.44-8.859-9.87
		c-1.306-1.607-2.302-3.575-3.012-5.534c-1.599-4.409-3.92-7.723-9.155-7.874c-0.777-0.022-1.609-0.609-2.288-1.108
		c-8.246-6.051-16.517-12.072-24.682-18.231c-6.428-4.849-11.954-10.494-14.961-18.201c-2.241-5.748-6.383-9.969-11.791-13.409
		c0.431,1.01,0.768,2.073,1.309,3.018c4.084,7.138,8.45,14.125,12.245,21.412c3.22,6.183,2.346,12.913,1.038,19.456
		c-0.507,2.537-1.374,5.108-2.61,7.373c-4.674,8.561-12.846,9.364-21.423,9.546c-8.885,0.188-15.431-4.516-21.572-9.895
		c-4.492-3.934-8.448-8.477-12.668-12.723c-1.259-1.267-2.607-2.446-3.915-3.666c-0.397,0.205-0.794,0.411-1.191,0.616
		c0.567,2.016,0.842,4.174,1.751,6.02c3.847,7.807,9.851,13.655,16.958,18.583c3.212,2.228,5.836,5.287,8.933,7.706
		c1.273,0.995,3.047,1.661,4.667,1.848c5.907,0.684,11.838,1.317,17.774,1.502c1.946,0.06,4.078-1.051,5.88-2.062
		c7.661-4.299,15.908-5.814,24.552-5.331c2.962,0.166,5.982,0.633,8.816,1.49c6.193,1.875,10.517,5.317,11.922,12.39
		c1.737,8.739,3.441,17.371,2.84,26.341c-0.099,1.463,0.606,3.126,1.346,4.475c3.048,5.559,6.129,11.107,9.428,16.521
		c5.375,8.819,5.134,18.545,5.109,28.326c-0.017,6.397-2.164,11.706-5.968,16.832c-7.192,9.693-16.206,16.172-28.314,17.722
		c-2.538,0.324-5.251-0.077-7.789-0.601c-2.147-0.443-3.526-0.172-4.715,1.786c-0.657,1.083-1.902,1.813-2.896,2.688
		c-3.871,3.41-8.157,5.933-13.467,6.245C82.512,225.031,81.012,225.031,79.511,225.031z M75.329,102.475
		c-1.236-0.987-1.953-2.042-2.78-2.138c-4.454-0.516-8.948-1.194-13.406-1.064c-7.797,0.227-15.446,1.452-21.9,6.452
		c-10.06,7.792-9.92,20.5,0.43,27.724c3.058,2.135,6.483,3.735,9.701,5.647c3.856,2.291,7.915,4.345,11.412,7.103
		c2.075,1.638,3.237,4.434,4.809,6.709c-0.282,0.178-0.563,0.355-0.845,0.534c-2.043-2.048-4.087-4.095-6.131-6.144
		c-0.268,0.249-0.537,0.498-0.805,0.747c0,3.699,0,7.397,0,11.184c-5.544,3.522-5.828,6.956-0.691,11.067
		c2.379,1.903,4.121,3.724,4.349,7.264c0.721,11.202,1.93,22.377,3.179,33.536c0.195,1.747,1.179,4.344,2.48,4.875
		c7.238,2.956,14.819,4.586,22.682,2.98c4.003-0.818,7.447-2.678,9.425-7.089c-1.344-0.472-2.447-1.119-3.598-1.216
		c-5.188-0.438-10.39-0.995-15.587-1c-12.525-0.01-11.48,3.796-12.331-10.528c-0.629-10.6-2.206-21.007-5.201-31.204
		c-1.472,0.395-2.677,0.717-3.881,1.039c-0.237-0.324-0.474-0.649-0.71-0.975c0.949-1.146,1.697-2.604,2.89-3.375
		c2.504-1.618,5.11-3.255,7.905-4.215c12.08-4.15,23.538-2.986,34.029,4.702c1.96,1.437,2.26,2.868,0.406,4.884
		c-0.979,1.063-1.107,2.909-1.619,4.401c0.287,0.171,0.575,0.341,0.862,0.511c1.648-1.268,3.625-2.281,4.854-3.873
		c1.259-1.631,2.24-3.766,2.51-5.791c0.304-2.282-0.127-4.727-0.591-7.029c-0.676-3.356,0.397-5.341,3.596-6.721
		c1.808-0.78,3.199-2.523,4.778-3.832c-6.765-0.185-11.877,2.543-15.884,7.795c0.967-2.523,2.219-4.748,3.917-6.554
		c3.853-4.099,9.095-4.178,14.23-4.466c5.737-0.321,7.891-2.444,8.509-8.302c0.144-1.364,0.068-2.758,0.289-4.106
		c1.512-9.241,1.052-18.411-1.393-27.408c-0.738-2.718-1.742-5.337-5.261-6.584c-9.104-3.226-18.1-4.294-27.401-1.144
		C86.65,98.872,80.701,100.732,75.329,102.475z M50.92,96.77c-1.912-1.818-3.747-3.776-5.797-5.476
		c-7.326-6.071-14.77-12.075-18.929-20.921c-1.208-2.57-1.948-5.657-1.849-8.468c0.114-3.189-1.058-4.389-3.87-4.618
		c-3.193-0.26-3.304,2.394-3.37,4.292c-0.106,3.096,0.333,6.224,0.707,9.319c0.538,4.455,1.97,8.342,5.959,11.14
		c3.022,2.119,5.567,4.921,8.324,7.419c-0.3,0.343-0.6,0.687-0.9,1.03c-4.249-3.833-8.5-7.664-12.739-11.508
		c-0.174-0.157-0.298-0.42-0.348-0.656c-1.452-6.809-2.924-13.614-4.287-20.441c-0.149-0.746,0.091-1.855,0.587-2.394
		c1.852-2.007,9.119-1.955,11.313,0.021C32.814,61.899,40.093,68.102,46.88,74.8c5.999,5.919,12.391,9.789,21.237,9.986
		C76.86,84.981,84.877,79.6,86.331,71.04c0.23-1.354,0.505-2.701,0.718-4.057c1.236-7.855-0.452-15.021-4.639-21.794
		c-3.563-5.764-8.556-10.703-9.979-17.762c-0.485-2.403-2.096-4.62-5.621-3.98c-0.305,8.85,2.723,16.718,7.077,24.235
		c-6.778-8.807-6.896-8.791-8.275-18.732c-0.344-2.479,0.342-5.103,0.554-7.66c2.777,0.233,5.641,0.132,8.305,0.811
		c1.975,0.503,3.823,1.847,5.493,3.123c3.362,2.571,6.564,5.35,9.832,8.043c-0.296,0.435-0.592,0.871-0.889,1.306
		c1.028-0.499,2.058-0.998,3.693-1.791c-6.717-7.792-12.415-15.784-23.192-17.423c0.919-0.346,1.663-0.418,2.386-0.328
		c0.86,0.109,1.704,0.354,2.553,0.547c7.521,1.707,12.871,6.728,17.195,12.52c5.109,6.843,13.135,7.243,20.236,11.486
		c-0.193-5.99-1.986-10.479-5.478-13.667C99.819,20.001,93.018,14.38,85.963,9.159c-7.528-5.572-16.178-6.304-24.943-3.44
		c-5.153,1.684-7.978,5.398-8.369,11.188c-0.703,10.429,0.937,19.888,7.87,28.274c3.734,4.516,5.892,10.063,6.019,16.198
		c0.085,4.117-1.621,6.482-5.149,6.543c2.369-1.995,3.209-4.668,1.709-5.862c-4.564-3.633-9.25-7.115-13.801-10.764
		c-3.289-2.637-6.674-5.219-9.598-8.232c-4.311-4.442-9.5-7.302-15.478-7.434c-8.143-0.179-17.163,3.842-18.847,13.25
		C3.851,57.41,4.861,65.897,7.47,74.015c4.439,13.812,14.685,23.069,25.655,31.181C38.898,102.463,44.47,99.824,50.92,96.77z
		 M133.53,152.521c0.43-0.162,0.859-0.324,1.29-0.485c1.522,3.964,3.449,7.829,4.454,11.921c1.005,4.083,1.278,8.382,1.52,12.606
		c0.243,4.262,0.054,8.549,0.054,12.711c8.347-10.497-0.276-43.884-12.05-50.863c-0.435,2.025-0.729,3.939-1.286,5.772
		c-0.289,0.952-0.855,2.007-1.62,2.588c-1.873,1.424-3.785,3.043-5.954,3.778c-3.83,1.298-2.759,3.474-1.53,5.784
		c3.431,6.448,5.089,13.415,4.313,20.56c-0.422,3.884-2.492,7.688-4.331,11.265c-0.629,1.223-2.733,1.94-4.306,2.384
		c-7.924,2.238-13.776-1.146-18.401-7.271c-4.653-6.162-11.011-6.118-17.578-4.856c-4.79,0.92-5.793,2.785-3.583,7.12
		c5.405,10.598,12.985,19.563,24.494,23.236c6.019,1.92,13.128,1.768,19.493,0.835c5.35-0.785,11.072-3.148,14.358-8.093
		c8.538-12.843,7.756-26.616,3.288-40.607C135.265,158.115,134.404,155.315,133.53,152.521z M120.001,62.571
		c-6.271-4.232-9.04-10.891-11.93-17.307c-1.824-4.051-4.337-7.168-8.343-8.48c-2.258-0.739-5.121-0.255-7.484,0.445
		c-0.511,0.151-0.393,3.672,0.031,5.503c1.244,5.369,5.621,8.482,9.531,11.637c8.612,6.95,17.543,13.503,26.348,20.215
		c2.795,2.13,5.256,0.889,7.397-1.017c2.299-2.044,0.081-3.529-1.004-5.055c-1.373-1.932-2.938-3.738-4.204-5.734
		c-3.582-5.646-7.027-11.378-10.59-17.036c-0.882-1.401-2.006-2.648-3.019-3.966c-0.458,0.283-0.917,0.564-1.376,0.847
		c3.796,6.676,7.591,13.353,11.777,20.718c-6.559-6.537-8.98-15.335-17.147-20.329C111.954,50.733,114.785,57.194,120.001,62.571z
		 M107.209,187.855c6.25,0.527,10.666-1.788,11.951-6.551c2.584-9.574-1.142-17.929-5.957-26.188
		c-1.04,1.572-1.64,3.188-1.594,4.787c0.069,2.354,0.77,4.689,0.853,7.046c0.037,1.037-0.515,2.731-1.261,3.052
		c-3.708,1.595-4.157,4.528-4.02,7.98C107.31,181.198,107.209,184.426,107.209,187.855z M80.228,162.571
		c0.239,3.422,0.289,6.73,0.823,9.958c0.133,0.801,1.806,1.793,2.819,1.853c0.722,0.042,1.988-1.223,2.195-2.098
		c0.391-1.654,0.112-3.455,0.26-5.183C86.65,163.3,84.805,161.973,80.228,162.571z M79.401,174.156c0-3.319,0.221-6.545-0.143-9.705
		c-0.102-0.887-1.843-1.944-2.989-2.187c-0.504-0.106-1.855,1.558-2.017,2.549c-0.315,1.93-0.089,3.952-0.041,5.935
		C74.291,173.997,75.491,175.768,79.401,174.156z M86.78,174.416c4.851,0.386,5.47-1.231,4.44-9.894
		c-2.999-1.671-4.397-0.622-4.435,2.638C86.759,169.599,86.78,172.037,86.78,174.416z M78.764,205.835
		c0.146-3.28,0.277-6.218,0.423-9.476c-1.834,0-3.335,0-4.823,0c0,3.152,0,5.988,0,9.104
		C75.835,205.587,77.127,205.696,78.764,205.835z M72.876,205.847c0.075-0.859,0.206-1.462,0.164-2.053
		c-0.166-2.338-0.385-4.673-0.592-7.104c-1.49,0-2.737,0-3.94,0c0,1.785-0.033,3.272,0.009,4.757
		c0.042,1.449,0.159,2.897,0.259,4.618C70.373,205.979,71.554,205.917,72.876,205.847z M71.786,163.107
		c-3.444,1.075-3.588,4.835-0.625,12.28C73.434,174.152,73.679,170.051,71.786,163.107z M103.398,176.513
		c-3.593,0.209-3.729,0.209-3.731,2.479c-0.002,2.64-1.024,6.014,3.731,6.295C103.398,182.386,103.398,179.598,103.398,176.513z
		 M85.493,205.481c-1.529-2.769-2.808-5.086-4.087-7.403C79.045,206.478,79.299,206.948,85.493,205.481z M93.221,164.649
		c0,3.607-0.049,6.521,0.055,9.429c0.015,0.43,0.688,0.984,1.179,1.193c0.298,0.128,0.981-0.18,1.232-0.496
		C96.546,173.692,95.251,166.261,93.221,164.649z M66.185,176.966c2.54-2.472,1.996-7.717-1.003-11.675
		C65.493,168.916,65.805,172.542,66.185,176.966z"/>
	<path fill-rule="evenodd" clip-rule="evenodd" fill="#FFFFFF" d="M63.009,0c-2.896,1.925-5.958,3.643-8.649,5.821
		c-4.625,3.745-6.825,8.453-6.159,14.734c1.003,9.463,3.167,18.274,9.125,26.025c2.337,3.04,3.573,6.925,5.311,10.426
		c-0.275,0.172-0.551,0.343-0.826,0.515c-3.125-2.71-6.115-5.596-9.401-8.094C45.294,44.019,38.286,38.4,30.75,33.63
		c-7.426-4.701-21.01-0.705-25.463,7.065C3.152,44.419,1.74,48.557,0,52.507C0,35.005,0,17.502,0,0C21.003,0,42.006,0,63.009,0z"/>
	<path fill-rule="evenodd" clip-rule="evenodd" fill="#FFFFFF" d="M75.329,102.475c5.373-1.743,11.322-3.604,17.224-5.603
		c9.302-3.15,18.297-2.083,27.401,1.144c3.519,1.247,4.522,3.866,5.261,6.584c2.444,8.997,2.904,18.167,1.393,27.408
		c-0.221,1.349-0.146,2.742-0.289,4.106c-0.618,5.857-2.771,7.98-8.509,8.302c-5.136,0.288-10.378,0.367-14.23,4.466
		c-1.698,1.806-2.95,4.03-3.917,6.554c4.007-5.252,9.119-7.979,15.884-7.795c-1.579,1.309-2.971,3.052-4.778,3.832
		c-3.198,1.38-4.271,3.364-3.596,6.721c0.464,2.303,0.895,4.747,0.591,7.029c-0.27,2.025-1.251,4.16-2.51,5.791
		c-1.229,1.592-3.205,2.605-4.854,3.873c-0.287-0.17-0.575-0.34-0.862-0.511c0.512-1.492,0.641-3.338,1.619-4.401
		c1.854-2.016,1.554-3.447-0.406-4.884c-10.491-7.688-21.949-8.853-34.029-4.702c-2.794,0.96-5.401,2.597-7.905,4.215
		c-1.192,0.771-1.94,2.229-2.89,3.375c0.237,0.325,0.473,0.65,0.71,0.975c1.205-0.322,2.409-0.645,3.881-1.039
		c2.996,10.197,4.572,20.604,5.201,31.204c0.851,14.324-0.194,10.519,12.331,10.528c5.198,0.005,10.399,0.563,15.587,1
		c1.15,0.097,2.254,0.744,3.598,1.216c-1.978,4.411-5.422,6.271-9.425,7.089c-7.862,1.605-15.444-0.024-22.682-2.98
		c-1.301-0.531-2.285-3.128-2.48-4.875c-1.249-11.159-2.458-22.334-3.179-33.536c-0.228-3.54-1.97-5.36-4.349-7.264
		c-5.137-4.111-4.853-7.545,0.691-11.067c0-3.786,0-7.484,0-11.184c0.269-0.249,0.537-0.498,0.805-0.747
		c2.043,2.049,4.087,4.096,6.131,6.144c0.282-0.179,0.563-0.356,0.845-0.534c-1.572-2.275-2.734-5.071-4.809-6.709
		c-3.497-2.758-7.555-4.812-11.412-7.103c-3.218-1.912-6.644-3.513-9.701-5.647c-10.35-7.224-10.489-19.932-0.43-27.724
		c6.454-5,14.104-6.225,21.9-6.452c4.458-0.13,8.952,0.549,13.406,1.064C73.376,100.433,74.093,101.488,75.329,102.475z
		 M44.416,120.704c2.017,7.79,18.433,16.898,28.314,15.933C70.596,129.285,51.73,118.529,44.416,120.704z M91.687,136.416
		c9.142-5.659,16.332-12.746,22.867-21.25C103.424,114.257,92.147,124.799,91.687,136.416z M87.053,101.396
		c-0.119-0.094-0.239-0.188-0.358-0.281c-0.854,1.514-2.123,2.933-2.495,4.557c-2.166,9.463-4.21,18.957-6.057,28.487
		c-0.286,1.475,0.66,3.189,1.227,5.609C82.083,126.215,84.568,113.805,87.053,101.396z M61.922,137.738
		c-8.798-4.777-17.682-8.721-23.882-16.97C37.476,126.89,53.677,138.272,61.922,137.738z M86.741,137.977
		c0.48,0.046,0.961,0.092,1.442,0.137c0.76-5.798,1.545-11.594,2.224-17.401c0.042-0.355-0.742-0.807-1.142-1.213
		c-0.52,0.572-1.449,1.112-1.496,1.721C87.339,126.799,87.063,132.39,86.741,137.977z M119.673,112.251
		c-2.811,6.247-5.272,11.72-7.733,17.191c0.38,0.185,0.761,0.37,1.141,0.555c2.614-4.778,5.327-9.509,7.736-14.388
		C121.176,114.881,120.112,113.45,119.673,112.251z M80.285,145.176c-0.391-0.265-0.781-0.528-1.172-0.792
		c-2.917,0.52-4.907,2.155-5.39,5.212c-0.131,0.828,0.281,2.226,0.883,2.553c0.607,0.33,2.233-0.056,2.589-0.635
		C78.42,149.521,79.284,147.306,80.285,145.176z M81.121,144.759c1.175,2.766,2.35,5.532,3.741,8.808
		C87.743,149.593,86.436,146.336,81.121,144.759z"/>
	<path fill-rule="evenodd" clip-rule="evenodd" fill="#FFFFFF" d="M50.92,96.77c-6.45,3.055-12.022,5.694-17.795,8.427
		C22.155,97.084,11.91,87.827,7.47,74.015c-2.609-8.118-3.62-16.605-2.093-25.134c1.684-9.407,10.704-13.428,18.847-13.25
		c5.977,0.131,11.167,2.991,15.478,7.434c2.923,3.014,6.309,5.595,9.598,8.232c4.551,3.648,9.236,7.131,13.801,10.764
		c1.5,1.194,0.659,3.868-1.709,5.862c3.529-0.062,5.234-2.427,5.149-6.543c-0.127-6.135-2.285-11.683-6.019-16.198
		c-6.934-8.387-8.573-17.846-7.87-28.274c0.391-5.791,3.216-9.505,8.369-11.188c8.765-2.864,17.415-2.132,24.943,3.44
		c7.055,5.222,13.856,10.842,20.339,16.759c3.491,3.187,5.284,7.677,5.478,13.667c-7.102-4.243-15.127-4.643-20.236-11.486
		c-4.324-5.792-9.674-10.813-17.195-12.52c-0.85-0.193-1.693-0.438-2.553-0.547c-0.723-0.091-1.467-0.018-2.386,0.328
		c10.777,1.639,16.476,9.632,23.192,17.423c-1.636,0.793-2.665,1.292-3.693,1.791c0.297-0.436,0.593-0.871,0.889-1.306
		c-3.268-2.694-6.47-5.473-9.832-8.043c-1.67-1.276-3.519-2.62-5.493-3.123c-2.664-0.679-5.527-0.578-8.305-0.811
		c-0.212,2.557-0.898,5.18-0.554,7.66c1.379,9.941,1.497,9.925,8.275,18.732c-4.354-7.517-7.382-15.385-7.077-24.235
		c3.525-0.64,5.136,1.578,5.621,3.98c1.423,7.059,6.416,11.998,9.979,17.762c4.187,6.772,5.875,13.938,4.639,21.794
		c-0.213,1.356-0.487,2.703-0.718,4.057c-1.454,8.56-9.471,13.941-18.213,13.746c-8.847-0.197-15.239-4.067-21.237-9.986
		c-6.788-6.698-14.066-12.901-21.158-19.289c-2.194-1.977-9.461-2.028-11.313-0.021c-0.496,0.539-0.736,1.647-0.587,2.394
		c1.362,6.827,2.834,13.632,4.287,20.441c0.05,0.235,0.174,0.499,0.348,0.656c4.239,3.844,8.49,7.675,12.739,11.508
		c0.3-0.343,0.6-0.687,0.9-1.03c-2.757-2.498-5.302-5.3-8.324-7.419c-3.989-2.798-5.421-6.685-5.959-11.14
		c-0.374-3.095-0.813-6.224-0.707-9.319c0.066-1.898,0.177-4.553,3.37-4.292c2.812,0.229,3.984,1.428,3.87,4.618
		c-0.1,2.812,0.641,5.898,1.849,8.468c4.159,8.846,11.603,14.85,18.929,20.921C47.173,92.993,49.008,94.951,50.92,96.77z
		 M76.993,11.392c-2.358-4.13-5.513-5.906-7.924-4.823c0.969,0.762,1.94,1.529,3.531,2.782c-4.128,0.461-7.314,0.815-10.5,1.171
		c0.029,0.29,0.058,0.58,0.086,0.87C67.025,11.392,71.864,11.392,76.993,11.392z M80.659,15.393
		c-0.065,0.324-0.131,0.647-0.195,0.972c3.677,1.164,7.353,2.329,11.03,3.493c0.247-0.375,0.495-0.75,0.743-1.125
		c-1.608-2.142-3.216-4.283-4.824-6.424c-0.288,0.164-0.575,0.328-0.863,0.491c0.055,0.953,0.109,1.905,0.172,2.991
		C84.461,15.642,82.56,15.517,80.659,15.393z M29.6,47.233c-0.115,0.23-0.23,0.461-0.346,0.692c3.905,1.841,7.81,3.681,12.182,5.743
		c-0.602-4.088-3.005-6.165-6.063-7.728c-0.124-0.064-0.381,0.135-0.59,0.217c0.603,0.842,1.194,1.667,2.202,3.074
		C34.045,48.436,31.823,47.834,29.6,47.233z M100.845,29.475c0.408-0.308,0.817-0.615,1.226-0.922
		c-0.408-1.169-0.507-3.048-1.278-3.385c-3.122-1.359-6.45-2.243-9.703-3.303c-0.131,0.235-0.262,0.471-0.392,0.706
		C94.08,24.872,97.462,27.173,100.845,29.475z M21.6,38.044c-0.246,0.167-0.492,0.335-0.737,0.503
		c0.148,0.735,0.296,1.47,0.459,2.28c-3.128,0.288-6.039,0.556-8.949,0.824c0.038,0.24,0.076,0.48,0.113,0.72
		c4.357,0.25,8.715,0.5,13.072,0.751c0.195-0.221,0.39-0.441,0.584-0.662C24.628,40.988,23.114,39.516,21.6,38.044z M47.131,59.365
		c-0.161,0.194-0.322,0.388-0.483,0.583c3.419,1.933,6.838,3.866,10.258,5.8c0.224-0.317,0.449-0.634,0.674-0.951
		c-1.37-1.826-2.74-3.651-4.11-5.476c-0.113,0.321-0.227,0.644-0.34,0.966C51.13,59.979,49.13,59.672,47.131,59.365z"/>
	<path fill-rule="evenodd" clip-rule="evenodd" fill="#FFFFFF" d="M133.53,152.521c0.874,2.795,1.734,5.595,2.625,8.385
		c4.468,13.991,5.25,27.765-3.288,40.607c-3.286,4.944-9.009,7.308-14.358,8.093c-6.365,0.933-13.475,1.085-19.493-0.835
		c-11.509-3.673-19.089-12.639-24.494-23.236c-2.211-4.335-1.207-6.2,3.583-7.12c6.567-1.262,12.925-1.306,17.578,4.856
		c4.625,6.124,10.478,9.509,18.401,7.271c1.572-0.443,3.677-1.161,4.306-2.384c1.839-3.577,3.909-7.381,4.331-11.265
		c0.775-7.145-0.883-14.111-4.313-20.56c-1.229-2.311-2.3-4.486,1.53-5.784c2.169-0.735,4.081-2.354,5.954-3.778
		c0.765-0.581,1.331-1.636,1.62-2.588c0.557-1.833,0.852-3.747,1.286-5.772c11.773,6.979,20.396,40.366,12.05,50.863
		c0-4.162,0.189-8.449-0.054-12.711c-0.241-4.225-0.515-8.523-1.52-12.606c-1.005-4.092-2.932-7.957-4.454-11.921
		C134.39,152.196,133.96,152.358,133.53,152.521z M122.239,152.129c-0.483,0.229-0.968,0.46-1.452,0.69
		c0.95,4.371,1.9,8.742,2.851,13.114c0.515-0.086,1.028-0.172,1.543-0.258c-0.176-2.206-0.352-4.413-0.539-6.761
		c0.695,0.407,1.224,0.716,1.753,1.024c0.225-0.19,0.45-0.381,0.675-0.571C125.459,156.955,123.85,154.541,122.239,152.129z
		 M126.617,185.81c0.354,0,0.709,0,1.063,0c0-3.34,0-6.68,0-10.02c-0.33-0.023-0.66-0.048-0.99-0.072
		c-1.169,3.441-2.338,6.883-3.507,10.324c0.156,0.061,0.312,0.119,0.467,0.18c0.841-0.906,1.681-1.813,2.755-2.971
		C126.505,184.458,126.562,185.134,126.617,185.81z M86.572,184.978c2.449,1.781,4.471,3.25,6.792,4.938
		C92.936,185.021,90.681,183.307,86.572,184.978z"/>
	<path fill-rule="evenodd" clip-rule="evenodd" fill="#FFFFFF" d="M120.001,62.571c-5.216-5.376-8.047-11.837-10.012-19.559
		c8.167,4.993,10.589,13.792,17.147,20.329c-4.187-7.366-7.981-14.042-11.777-20.718c0.459-0.283,0.918-0.564,1.376-0.847
		c1.013,1.317,2.137,2.565,3.019,3.966c3.563,5.658,7.008,11.391,10.59,17.036c1.267,1.996,2.831,3.803,4.204,5.734
		c1.085,1.526,3.303,3.011,1.004,5.055c-2.142,1.905-4.603,3.147-7.397,1.017c-8.805-6.711-17.735-13.265-26.348-20.215
		c-3.91-3.155-8.287-6.268-9.531-11.637c-0.424-1.832-0.542-5.352-0.031-5.503c2.363-0.7,5.227-1.185,7.484-0.445
		c4.006,1.312,6.519,4.429,8.343,8.48C110.961,51.68,113.729,58.339,120.001,62.571z M96.69,39.389
		c2.395,7.247,7.791,11.571,13.495,15.659c-1.855-4.417-3.956-8.615-6.438-12.574C102.298,40.162,100.229,38.251,96.69,39.389z"/>
	<path fill-rule="evenodd" clip-rule="evenodd" fill="#FFFFFF" d="M107.209,187.855c0-3.43,0.101-6.657-0.027-9.874
		c-0.138-3.452,0.312-6.386,4.02-7.98c0.746-0.32,1.298-2.015,1.261-3.052c-0.083-2.356-0.783-4.691-0.853-7.046
		c-0.046-1.599,0.554-3.215,1.594-4.787c4.815,8.26,8.541,16.614,5.957,26.188C117.875,186.067,113.459,188.383,107.209,187.855z"/>
	<path fill-rule="evenodd" clip-rule="evenodd" fill="#FFFFFF" d="M80.228,162.571c4.577-0.599,6.423,0.729,6.098,4.53
		c-0.147,1.728,0.131,3.528-0.26,5.183c-0.207,0.875-1.474,2.14-2.195,2.098c-1.014-0.06-2.687-1.052-2.819-1.853
		C80.517,169.302,80.467,165.993,80.228,162.571z"/>
	<path fill-rule="evenodd" clip-rule="evenodd" fill="#FFFFFF" d="M79.401,174.156c-3.911,1.611-5.111-0.159-5.189-3.408
		c-0.048-1.982-0.274-4.005,0.041-5.935c0.162-0.991,1.513-2.655,2.017-2.549c1.146,0.242,2.887,1.3,2.989,2.187
		C79.622,167.611,79.401,170.837,79.401,174.156z"/>
	<path fill-rule="evenodd" clip-rule="evenodd" fill="#FFFFFF" d="M86.78,174.416c0-2.379-0.021-4.817,0.006-7.256
		c0.037-3.26,1.436-4.309,4.435-2.638C92.25,173.185,91.631,174.802,86.78,174.416z"/>
	<path fill-rule="evenodd" clip-rule="evenodd" fill="#FFFFFF" d="M78.764,205.835c-1.636-0.139-2.928-0.248-4.399-0.372
		c0-3.115,0-5.951,0-9.104c1.488,0,2.988,0,4.823,0C79.041,199.617,78.91,202.555,78.764,205.835z"/>
	<path fill-rule="evenodd" clip-rule="evenodd" fill="#FFFFFF" d="M72.876,205.847c-1.322,0.07-2.503,0.133-4.101,0.218
		c-0.1-1.721-0.217-3.169-0.259-4.618c-0.042-1.484-0.009-2.972-0.009-4.757c1.203,0,2.45,0,3.94,0
		c0.207,2.432,0.427,4.767,0.592,7.104C73.082,204.385,72.951,204.987,72.876,205.847z"/>
	<path fill-rule="evenodd" clip-rule="evenodd" fill="#FFFFFF" d="M71.786,163.107c1.893,6.943,1.647,11.045-0.625,12.28
		C68.198,167.942,68.342,164.183,71.786,163.107z"/>
	<path fill-rule="evenodd" clip-rule="evenodd" fill="#FFFFFF" d="M103.398,176.513c0,3.085,0,5.873,0,8.774
		c-4.756-0.281-3.733-3.655-3.731-6.295C99.67,176.722,99.806,176.722,103.398,176.513z"/>
	<path fill-rule="evenodd" clip-rule="evenodd" fill="#FFFFFF" d="M85.493,205.481c-6.194,1.467-6.448,0.996-4.087-7.403
		C82.686,200.396,83.964,202.713,85.493,205.481z"/>
	<path fill-rule="evenodd" clip-rule="evenodd" fill="#FFFFFF" d="M93.221,164.649c2.03,1.611,3.325,9.043,2.466,10.126
		c-0.251,0.316-0.935,0.624-1.232,0.496c-0.491-0.209-1.164-0.764-1.179-1.193C93.172,171.17,93.221,168.257,93.221,164.649z"/>
	<path fill-rule="evenodd" clip-rule="evenodd" fill="#FFFFFF" d="M66.185,176.966c-0.38-4.424-0.691-8.05-1.003-11.675
		C68.18,169.249,68.725,174.494,66.185,176.966z"/>
	<path fill-rule="evenodd" clip-rule="evenodd" d="M44.416,120.704c7.314-2.175,26.18,8.581,28.314,15.933
		C62.849,137.603,46.433,128.494,44.416,120.704z"/>
	<path fill-rule="evenodd" clip-rule="evenodd" d="M91.687,136.416c0.461-11.617,11.737-22.159,22.867-21.25
		C108.019,123.67,100.828,130.757,91.687,136.416z"/>
	<path fill-rule="evenodd" clip-rule="evenodd" d="M87.053,101.396c-2.484,12.409-4.97,24.819-7.684,38.373
		c-0.567-2.42-1.512-4.135-1.227-5.609c1.847-9.53,3.891-19.024,6.057-28.487c0.372-1.624,1.641-3.043,2.495-4.557
		C86.813,101.208,86.934,101.302,87.053,101.396z"/>
	<path fill-rule="evenodd" clip-rule="evenodd" d="M61.922,137.738c-8.246,0.534-24.447-10.849-23.882-16.97
		C44.24,129.018,53.125,132.961,61.922,137.738z"/>
	<path fill-rule="evenodd" clip-rule="evenodd" d="M86.741,137.977c0.321-5.587,0.598-11.178,1.028-16.757
		c0.047-0.608,0.977-1.148,1.496-1.721c0.399,0.406,1.184,0.857,1.142,1.213c-0.679,5.808-1.464,11.604-2.224,17.401
		C87.702,138.068,87.222,138.022,86.741,137.977z"/>
	<path fill-rule="evenodd" clip-rule="evenodd" d="M119.673,112.251c0.439,1.199,1.503,2.63,1.144,3.358
		c-2.409,4.879-5.122,9.609-7.736,14.388c-0.38-0.185-0.761-0.37-1.141-0.555C114.4,123.971,116.862,118.498,119.673,112.251z"/>
	<path fill-rule="evenodd" clip-rule="evenodd" d="M80.285,145.176c-1.001,2.13-1.865,4.345-3.09,6.338
		c-0.355,0.579-1.982,0.965-2.589,0.635c-0.602-0.327-1.014-1.725-0.883-2.553c0.483-3.057,2.473-4.692,5.39-5.212
		C79.504,144.647,79.895,144.911,80.285,145.176z"/>
	<path fill-rule="evenodd" clip-rule="evenodd" d="M81.121,144.759c5.314,1.577,6.622,4.834,3.741,8.808
		C83.471,150.291,82.296,147.524,81.121,144.759z"/>
	<path fill-rule="evenodd" clip-rule="evenodd" d="M76.993,11.392c-5.129,0-9.968,0-14.807,0c-0.029-0.29-0.058-0.58-0.086-0.87
		c3.186-0.355,6.372-0.71,10.5-1.171c-1.59-1.253-2.562-2.02-3.531-2.782C71.48,5.486,74.635,7.262,76.993,11.392z"/>
	<path fill-rule="evenodd" clip-rule="evenodd" d="M80.659,15.393c1.9,0.125,3.802,0.249,6.063,0.398
		c-0.063-1.086-0.117-2.039-0.172-2.991c0.288-0.163,0.575-0.327,0.863-0.491c1.608,2.142,3.216,4.283,4.824,6.424
		c-0.248,0.375-0.496,0.75-0.743,1.125c-3.678-1.165-7.354-2.329-11.03-3.493C80.528,16.04,80.594,15.716,80.659,15.393z"/>
	<path fill-rule="evenodd" clip-rule="evenodd" d="M29.6,47.233c2.223,0.601,4.445,1.203,7.385,1.998
		c-1.008-1.408-1.599-2.232-2.202-3.074c0.209-0.082,0.466-0.281,0.59-0.217c3.057,1.563,5.461,3.639,6.063,7.728
		c-4.372-2.062-8.277-3.902-12.182-5.743C29.37,47.695,29.485,47.464,29.6,47.233z"/>
	<path fill-rule="evenodd" clip-rule="evenodd" d="M100.845,29.475c-3.383-2.302-6.765-4.603-10.147-6.905
		c0.13-0.235,0.261-0.47,0.392-0.706c3.253,1.06,6.581,1.944,9.703,3.303c0.771,0.336,0.87,2.215,1.278,3.385
		C101.662,28.86,101.253,29.167,100.845,29.475z"/>
	<path fill-rule="evenodd" clip-rule="evenodd" d="M21.6,38.044c1.514,1.472,3.028,2.944,4.543,4.416
		c-0.195,0.221-0.39,0.441-0.584,0.662c-4.357-0.25-8.715-0.5-13.072-0.751c-0.038-0.239-0.075-0.479-0.113-0.72
		c2.911-0.268,5.821-0.537,8.949-0.824c-0.163-0.81-0.311-1.545-0.459-2.28C21.108,38.379,21.354,38.211,21.6,38.044z"/>
	<path fill-rule="evenodd" clip-rule="evenodd" d="M47.131,59.365c1.999,0.308,3.999,0.614,5.999,0.922
		c0.113-0.322,0.227-0.645,0.34-0.966c1.37,1.825,2.74,3.65,4.11,5.476c-0.225,0.317-0.45,0.634-0.674,0.951
		c-3.419-1.934-6.839-3.867-10.258-5.8C46.809,59.753,46.97,59.559,47.131,59.365z"/>
	<path fill-rule="evenodd" clip-rule="evenodd" d="M122.239,152.129c1.61,2.412,3.22,4.826,4.83,7.239
		c-0.225,0.19-0.45,0.381-0.675,0.571c-0.529-0.309-1.058-0.617-1.753-1.024c0.188,2.348,0.363,4.555,0.539,6.761
		c-0.515,0.086-1.028,0.172-1.543,0.258c-0.95-4.372-1.9-8.743-2.851-13.114C121.271,152.589,121.756,152.358,122.239,152.129z"/>
	<path fill-rule="evenodd" clip-rule="evenodd" d="M126.617,185.81c-0.056-0.676-0.112-1.352-0.212-2.559
		c-1.074,1.158-1.914,2.064-2.755,2.971c-0.155-0.061-0.311-0.119-0.467-0.18c1.169-3.441,2.338-6.883,3.507-10.324
		c0.33,0.024,0.66,0.049,0.99,0.072c0,3.34,0,6.68,0,10.02C127.326,185.81,126.972,185.81,126.617,185.81z"/>
	<path fill-rule="evenodd" clip-rule="evenodd" d="M86.572,184.978c4.108-1.671,6.363,0.043,6.792,4.938
		C91.043,188.228,89.021,186.759,86.572,184.978z"/>
	<path fill-rule="evenodd" clip-rule="evenodd" d="M96.69,39.389c3.539-1.138,5.607,0.773,7.057,3.085
		c2.482,3.958,4.583,8.156,6.438,12.574C104.481,50.96,99.085,46.636,96.69,39.389z"/>
</g>
</svg>
