<?xml version="1.0" encoding="utf-8"?>
<!-- Generator: Adobe Illustrator 16.0.0, SVG Export Plug-In . SVG Version: 6.00 Build 0)  -->
<!DOCTYPE svg PUBLIC "-//W3C//DTD SVG 1.1//EN" "http://www.w3.org/Graphics/SVG/1.1/DTD/svg11.dtd">
<svg version="1.1" id="Layer_1" xmlns="http://www.w3.org/2000/svg" xmlns:xlink="http://www.w3.org/1999/xlink" x="0px" y="0px"
	 width="278.04px" height="289.349px" viewBox="0 0 278.04 289.349" enable-background="new 0 0 278.04 289.349"
	 xml:space="preserve">
<path fill-rule="evenodd" clip-rule="evenodd" d="M48.016,154.295c0.078,1.1,0.155,2.2,0.246,3.48
	c-0.303-0.18-0.587-0.254-0.719-0.438c-6.225-8.722-10.791-18.121-12.225-28.9c-0.965-7.253-3.251-14.113-6.956-20.467
	c-0.492-0.844-0.86-1.761-1.07-2.78c4.442,2.833,7.25,7.107,10.211,11.242c0.167-0.073,0.333-0.147,0.5-0.222
	c-0.397-1.243-0.717-2.518-1.207-3.723c-1.388-3.415-2.947-6.765-4.229-10.219c-0.533-1.438-0.659-3.064-0.749-4.618
	c-0.206-3.562-0.282-7.131-0.397-10.698c-0.016-0.485,0.046-0.974,0.262-1.48c1.686,4.422,2.828,9.02,5.932,12.783
	c-0.684-2.877-1.382-5.75-2.046-8.631c-1.239-5.378-2.279-10.818-1.53-16.338c0.538-3.959,1.613-7.845,2.447-11.763
	c0.262,0.028,0.524,0.056,0.785,0.083c0.153,3.447,0.289,6.894,0.463,10.34c0.331,6.541,1.815,12.801,4.651,18.719
	c0.246,0.513,0.621,0.964,1.164,1.396c-1.665-8.85-0.291-17.357,2.439-26.082c0.457,1.391,0.838,2.554,1.352,4.12
	c2.441-8.602,4.408-16.872,9.62-23.989c-0.096,0.687-0.107,1.398-0.299,2.057c-1.641,5.628-3.451,11.208-3.95,17.107
	c-0.775,9.153,0.822,17.749,5.994,25.461c0.948,1.413,2.314,2.668,3.741,3.609c2.211,1.457,3.306,1.085,4.816-1.069
	c0.26-0.371,0.513-0.746,0.967-1.41c0.479,3.126-0.094,5.74-1.288,8.208c-1.953,4.038-3.92,8.058-4.144,12.652
	c-0.046,0.936-0.006,1.876-0.149,2.844c-1.865-4.266-3.209-8.754-6.141-12.587c-0.266,6.437-1.042,12.7-0.632,18.885
	c0.408,6.159,2.007,12.24,3.049,18.152c-2.119-2.959-4.354-6.082-6.59-9.204c-0.197,0.067-0.395,0.135-0.592,0.203
	c0.061,1.078,0.039,2.17,0.197,3.235c0.52,3.507,0.843,7.074,1.762,10.479c0.564,2.092,1.88,4.074,3.205,5.848
	c3.379,4.525,5.706,9.521,7.451,14.857c1.384,4.229,3.536,8.078,6.35,11.546c0.334,0.412,0.571,0.902,0.67,1.54
	c-4.786-3.028-8.606-7.146-12.507-11.153c-3.912-4.021-7.842-8.045-10.206-13.297C48.449,154.149,48.232,154.223,48.016,154.295z"/>
<path fill-rule="evenodd" clip-rule="evenodd" d="M174.306,197.74c1.614-4.135,3.229-8.27,5-12.806
	c-10.21,5.34-18.898,11.646-21.147,23.897c-0.57-6.676,0.665-13.009,3.617-18.769c2.93-5.716,6.623-11.04,9.925-16.443
	c-2.303,0.608-7.011,4.398-10.369,7.979c0.732-1.748,1.29-3.598,2.234-5.224c1.697-2.926,3.632-5.713,5.454-8.566
	c1.251-1.959,2.453-3.943,2.659-6.482c-3.257,2.849-6.359,5.56-9.462,8.272c-0.134-0.089-0.267-0.177-0.401-0.266
	c0.471-0.898,0.806-1.906,1.433-2.676c3.127-3.838,6.185-7.749,9.544-11.379c5.135-5.55,10.428-10.961,15.792-16.292
	c2.653-2.638,5.632-4.946,8.435-7.437c4.423-3.931,8.07-8.493,10.863-13.708c0.581-1.087,0.822-2.355,1.346-3.91
	c1.128,2.851,0.935,5.524,0.677,8.125c-0.271,2.756-0.79,5.502-1.42,8.202c-0.61,2.617-1.496,5.17-2.047,7.848
	c3.685-2.884,5.874-6.574,6.211-11.341c1.747,4.895,0.43,9.714-0.673,14.353c-1.111,4.674-3.158,9.126-4.987,14.212
	c1.963-2.299,3.663-4.29,5.458-6.392c-0.642,4.812-2.775,8.955-5.127,12.979c-2.342,4.006-4.872,7.902-7.193,11.963
	c3.4-1.727,6.258-4.063,8.342-7.317c0.135,0.094,0.271,0.187,0.407,0.28c-1.165,2.2-2.22,4.469-3.519,6.588
	c-3.467,5.663-8.423,9.779-14.15,12.966c-2.774,1.543-5.794,2.64-8.602,4.127c-3.249,1.721-6.569,3.46-7.49,7.608
	C174.845,198.002,174.576,197.872,174.306,197.74z"/>
<path fill-rule="evenodd" clip-rule="evenodd" d="M107.352,161.787c-4.275-2.938-8.746-6.012-13.217-9.086
	c-0.186,0.165-0.373,0.329-0.559,0.494c5.613,7.542,10.635,15.353,11.688,25.329c-1.975-3.346-4.52-5.722-8.128-7.687
	c1.108,2.085,2.167,3.636,2.793,5.345c1.369,3.738,2.451,7.58,3.774,11.337c1.475,4.187,3.43,8.137,6.268,11.603
	c0.262,0.319,0.399,0.74,0.415,1.284c-3.741-3.783-8.823-4.95-13.298-7.228c-3.273-1.666-6.819-2.879-9.888-4.848
	c-6.903-4.431-12.43-10.266-16.219-17.684c1.389,1.138,2.777,2.274,4.166,3.412c0.158-0.117,0.316-0.232,0.475-0.349
	c-0.345-0.839-0.698-1.674-1.035-2.516c-2.361-5.894-5.596-11.211-9.865-15.962c-2.742-3.053-5.192-6.398-6.496-10.4
	c-0.093-0.283-0.184-0.57-0.238-0.862c-0.018-0.095,0.085-0.211,0.108-0.262c3.579,3.566,7.169,7.144,10.759,10.722
	c0.13-0.118,0.261-0.234,0.391-0.353c-0.968-2.697-2.052-5.359-2.879-8.101c-1.603-5.317-2.809-10.768-4.657-15.993
	c-1.455-4.112-2.241-8.262-2.539-12.558c-0.026-0.386-0.003-0.774,0.174-1.219c2.369,9.316,6.684,17.445,14.013,23.918
	c-1.251-2.73-2.561-5.332-3.649-8.023c-1.67-4.13-1.529-8.538-1.712-12.886c-0.196-4.646-0.397-9.29-0.593-13.934
	c-0.014-0.335-0.001-0.671,0.389-1.055c0.502,2.727,1.028,5.448,1.503,8.18c1.209,6.961,4.223,12.989,9.483,17.743
	c5.208,4.708,10.632,9.179,15.822,13.904C100.405,149.34,104.007,154.559,107.352,161.787z"/>
<path fill-rule="evenodd" clip-rule="evenodd" d="M171.639,222.523c-5.295,9.222-8.202,18.92-7.322,30.058
	c0.55-0.61,0.841-0.854,1.035-1.16c4.774-7.461,11.08-13.408,18.252-18.502c7.944-5.645,16.923-8.95,26.171-11.69
	c3.063-0.907,6.077-2.026,9.013-3.283c1.948-0.834,3.717-2.085,5.858-2.873c-1.102,1.121-2.13,2.329-3.32,3.348
	c-3.903,3.343-7.748,6.77-11.829,9.885c-7.71,5.885-13.514,13.226-17.957,21.809c-3.394,6.553-7.853,12.448-13.825,16.817
	c-2.739,2.005-6.263,3.078-9.573,4.126c-3.845,1.218-7.837,1.981-11.78,2.872c-6.4,1.443-10.747,5.48-13.95,10.957
	c-0.785,1.342-1.381,2.793-2.195,4.463c-0.963-2.224-1.227-4.323-0.78-6.554c0.709-3.555,1.427-7.109,2.024-10.684
	c0.253-1.509,0.212-3.065,0.322-4.925c0.712,1.199,1.299,2.189,1.887,3.18c1.898-9.366,3.909-18.564,9.435-26.581
	C158.47,235.998,164.67,228.965,171.639,222.523z"/>
<path fill-rule="evenodd" clip-rule="evenodd" d="M227.229,91.083c3.288-3.441,4.778-7.588,5.26-12.182
	c0.996,6.91-1.711,13.359-2.124,20.121c1.486-2.371,2.966-4.745,4.46-7.11c0.549-0.867,1.081-1.753,1.708-2.562
	c2.63-3.382,3.838-7.23,3.879-11.481c0.003-0.314,0.102-0.628,0.572-0.935c0,2.097,0.079,4.198-0.017,6.291
	c-0.206,4.515-2.172,8.51-3.826,12.602c-2.121,5.247-3.464,10.664-3.717,16.363c-0.158,3.561-0.704,7.104-1.07,10.655
	c-0.041,0.4-0.04,0.808,0.124,1.278c3.003-3.935,6.022-7.835,6.364-13.114c0.17,0.036,0.34,0.072,0.51,0.11
	c0,1.863,0.135,3.739-0.024,5.59c-0.68,7.941-2.438,15.685-5.843,22.867c-4.813,10.157-9.911,20.226-17.012,29.038
	c-3.674,4.561-7.814,8.747-11.763,13.084c-0.159,0.174-0.517,0.164-1.223,0.366c8.389-13.336,13.842-27.25,14.032-42.866
	c-1.034,1.54-2.068,3.081-3.103,4.621c-0.136-0.07-0.27-0.141-0.404-0.211c1.827-8.578,3.191-17.175,1.369-26.114
	c-1.295,1.018-2.345,1.842-3.247,2.55c0.036-4.671,0.216-9.208,0.066-13.734c-0.151-4.558-0.979-9.016-3.373-13.075
	c1.398-0.277,2.72-0.371,3.918-0.804c5.654-2.041,8.454-6.607,10.085-11.996c1.066-3.521,1.972-7.121,2.557-10.749
	c0.784-4.865,0.006-8.729-2.098-15.268c0.368,0.398,0.824,0.746,1.089,1.204c2.096,3.625,3.251,7.561,3.498,11.719
	c0.312,5.236,1.366,10.455,0.392,15.732c-0.428,2.32-0.704,4.667-1.034,7.004C227.189,90.407,227.229,90.748,227.229,91.083z"/>
<path fill-rule="evenodd" clip-rule="evenodd" d="M49.952,209.939c2.383,2.098,4.71,4.263,7.161,6.278
	c4.489,3.692,9.488,6.429,15.195,7.785c5.579,1.326,11.18,2.58,16.7,4.12c4.789,1.335,9.266,3.404,13.394,6.292
	c3.925,2.745,6.146,6.577,7.898,10.827c0.177,0.431,0.396,0.844,0.691,1.467c1.995-2.726,0.892-5.573,0.83-8.822
	c0.733,0.72,1.304,1.031,1.479,1.493c0.739,1.945,1.723,3.897,1.93,5.917c0.254,2.49-0.208,5.049-0.302,7.58
	c-0.187,5.055,1.501,9.553,4.51,13.491c2.049,2.681,4.483,5.064,6.715,7.607c0.318,0.363,0.459,0.883,0.682,1.33
	c-0.129,0.098-0.257,0.193-0.385,0.29c-0.925-0.503-1.802-1.145-2.782-1.482c-3.304-1.137-6.656-2.125-9.966-3.241
	c-8.429-2.842-15.342-7.897-20.87-14.79c-3.896-4.859-7.544-9.915-11.295-14.889c-4.403-5.841-9.436-11.036-15.557-15.103
	c-5.509-3.658-9.824-8.588-14.293-13.355c-0.74-0.79-1.441-1.615-2.16-2.424C49.668,210.188,49.81,210.063,49.952,209.939z"/>
<path fill-rule="evenodd" clip-rule="evenodd" d="M166.358,210.658c1.703-1.941,3.288-4,5.126-5.803
	c7.536-7.394,16.213-12.942,26.365-16.085c3.169-0.98,6.321-2.053,9.392-3.305c5.188-2.115,8.828-6.014,11.689-10.712
	c0.638-1.049,1.242-2.12,1.862-3.181c0.142,0.069,0.283,0.139,0.426,0.209c-0.533,1.308-1.006,2.646-1.608,3.922
	c-3.441,7.313-7.149,14.504-13.229,20.022c-4.742,4.304-9.528,8.591-15.398,11.455c-6.237,3.042-12.355,6.329-18.536,9.49
	c-5.524,2.826-10.203,6.731-14.07,11.522c-3.293,4.08-6.567,8.229-9.337,12.668c-4.258,6.822-7.216,14.199-7.423,22.423
	c-0.004,0.15-0.07,0.298-0.465,0.47c-0.054-0.973-0.166-1.947-0.152-2.92c0.19-13.911,2.444-27.425,7.555-40.431
	c1.702-4.333,2.498-8.85,1.002-13.479c-0.056-0.171-0.092-0.354-0.096-0.532c-0.002-0.096,0.085-0.192,0.212-0.457
	c3.417,4.313,3.389,9.499,4.177,14.944c4.632-7.475,8.293-15.207,15.228-20.802c-1.145,3.662-2.194,7.021-3.243,10.381
	C166.007,210.526,166.182,210.593,166.358,210.658z"/>
<path fill-rule="evenodd" clip-rule="evenodd" d="M167.571,242.539c2.092-4.277,4.096-8.601,6.298-12.821
	c3.447-6.604,7.938-12.316,13.724-17.164c6.517-5.46,13.808-8.986,22.017-10.783c7.409-1.622,13.835-5.019,19.627-9.933
	c5.053-4.285,10.012-8.631,14.017-13.918c1.664-2.196,2.895-4.736,4.204-7.185c0.818-1.53,1.415-3.179,2.485-4.724
	c-0.179,1.792-0.109,3.655-0.589,5.364c-0.991,3.532-2.26,6.987-3.44,10.466c-2.126,6.266-4.847,12.264-8.37,17.867
	c-3.931,6.246-9.477,10.477-15.985,14.01c-5.6,3.04-11.774,2.994-17.475,4.998c-8.771,3.083-17.396,6.508-25.005,12.081
	c-4.333,3.174-7.295,7.527-10.686,11.525c-0.149,0.177-0.304,0.35-0.455,0.523C167.814,242.745,167.692,242.643,167.571,242.539z"/>
<path fill-rule="evenodd" clip-rule="evenodd" d="M129.486,233.554c1.241-3.259,2.323-6.102,3.405-8.945
	c0.233,0.058,0.468,0.115,0.701,0.173c-1.397,5.191-0.712,10.321,0.483,15.359c0.633,2.67,2.013,5.153,2.851,7.785
	c1.489,4.682,2.551,9.426,2.074,14.432c-0.36,3.792-0.282,7.626-0.619,11.421c-0.341,3.846-0.952,7.668-1.458,11.5
	c-0.01,0.07-0.178,0.12-0.386,0.254c-0.277-1.151-0.563-2.26-0.812-3.376c-1.004-4.511-3.771-7.925-6.944-11.061
	c-3.324-3.284-6.614-6.557-8.567-10.938c-2.145-4.806-2.404-9.751-1.934-14.921c0.291-3.198,0.256-6.565-0.417-9.687
	c-2.474-11.47-7.835-21.688-14.661-31.116c-1.958-2.704-4.716-4.831-7.113-7.218c-0.234-0.233-0.5-0.436-0.541-0.929
	c7.421,4.324,14.55,9.043,20.557,15.282C122.116,217.811,126.764,224.917,129.486,233.554z"/>
<path fill-rule="evenodd" clip-rule="evenodd" d="M119.078,168.642c2.908-4.142,5.769-7.709,6.639-12.499
	c0.09,0.414,0.308,0.846,0.251,1.239c-0.45,3.146-0.534,6.427-1.535,9.394c-1.544,4.573-2.817,9.127-2.894,13.968
	c-0.007,0.449,0.115,0.899,0.221,1.673c1.419-2.992,2.681-5.654,3.943-8.316c0.156,0.058,0.313,0.114,0.47,0.17
	c0,7.505,0,15.009,0,22.865c5.786-4.156,7.892-9.737,6.244-16.197c2.122,1.999,2.753,4.424,3.455,6.706
	c0.688,2.24,1.217,4.614,1.258,6.938c0.029,1.714-0.593,3.565-1.37,5.134c-1.017,2.046-2.379,3.944-3.758,5.781
	c-3.69,4.914-3.394,10.386-2.421,15.98c0.051,0.292,0.169,0.573,0.218,0.866c0.017,0.094-0.088,0.21-0.254,0.567
	c-0.317-0.641-0.494-1.172-0.808-1.605c-1.982-2.734-3.675-5.779-6.076-8.081c-2.91-2.785-5.029-6.013-7.101-9.358
	c-2.83-4.569-4.702-9.561-6.014-14.704c-1.093-4.285-1.015-8.703-0.438-13.155c1.381-10.658,7.308-18.935,13.744-26.946
	c1.466-1.825,3.469-3.22,5.419-4.688C123.736,151.726,118.901,158.917,119.078,168.642z"/>
<path fill-rule="evenodd" clip-rule="evenodd" d="M265.943,196.193c-0.382,4.641-2.691,8.318-5.401,11.857
	c-4.484,5.856-10.311,9.908-16.801,13.238c-3.78,1.939-7.194,4.469-9.44,8.271c-3.548,6.008-8.848,10.058-14.71,13.669
	c-5.276,3.25-11.088,4.211-16.954,5.295c-1.856,0.343-3.661,0.958-6.094,1.611c1.767-2.929,3.169-5.708,4.985-8.184
	c7.479-10.199,16.37-18.987,27.11-25.725c5.653-3.546,11.941-5.7,18.401-7.436c3.655-0.979,7.266-2.336,10.664-3.999
	c3.313-1.62,5.537-4.617,7.578-7.657C265.496,196.816,265.722,196.507,265.943,196.193z"/>
<path fill-rule="evenodd" clip-rule="evenodd" d="M104.214,215.216c-8.368-4.271-16.782-8.565-25.159-12.84
	c0.028,0.176,0.105,0.644,0.263,1.613c-10.531-3.979-19.185-10.067-25.991-18.427c-8.489-10.426-12.637-22.8-14.457-36.041
	c3.675,7.556,5.909,15.937,13.089,21.957c-0.784-3.233-1.47-6.065-2.157-8.898c0.119-0.041,0.238-0.082,0.356-0.123
	c1.239,2.015,2.595,3.968,3.692,6.056c2.468,4.701,6.491,7.826,10.824,10.494c4.834,2.977,10.026,5.373,14.87,8.335
	c7.789,4.762,14.419,10.812,19.275,18.649c1.718,2.772,3.45,5.536,5.147,8.322C104.167,214.638,104.178,215.074,104.214,215.216z"/>
<path fill-rule="evenodd" clip-rule="evenodd" d="M87.961,213.301c-1.464-1.619-2.93-3.236-4.394-4.855
	c0.115-0.134,0.23-0.269,0.345-0.404c0.799,0.477,1.591,0.964,2.396,1.427c4.664,2.686,9.392,5.267,13.973,8.086
	c2.619,1.611,5.032,3.567,7.472,5.454c0.745,0.576,1.386,1.368,1.873,2.182c1.977,3.306,3.877,6.657,5.493,10.233
	c-1.187-0.981-2.314-2.049-3.572-2.93c-5.301-3.715-11.388-5.431-17.571-6.994c-7.375-1.866-14.771-3.729-21.983-6.119
	c-3.479-1.153-6.71-3.289-9.784-5.379c-4.156-2.826-8.146-6.044-10.853-10.324c-3.663-5.793-6.264-12.123-7.671-18.875
	c-0.69-3.311-1.265-6.645-1.855-9.974c-0.068-0.385,0.097-0.811,0.154-1.216c0.194-0.034,0.388-0.068,0.582-0.102
	c0.504,1.179,1.109,2.324,1.497,3.541c2.781,8.738,8.848,15.015,15.588,20.75c7.819,6.653,16.71,11.52,26.209,15.321
	c0.599,0.239,1.233,0.389,1.85,0.58C87.795,213.569,87.878,213.435,87.961,213.301z"/>
<path fill-rule="evenodd" clip-rule="evenodd" d="M278.04,114.315c-1.475,2.546-3.077,5.026-4.398,7.649
	c-3.717,7.384-5.975,15.127-5.838,23.516c0.073,4.466-0.39,8.938-0.49,13.412c-0.062,2.775,0.271,5.565,0.133,8.335
	c-0.362,7.269-0.866,14.574-5.133,20.845c-1.445,2.124-3.284,4.075-5.267,5.716c-4.502,3.729-9.059,7.418-14.476,9.847
	c-1.691,0.757-3.228,1.857-4.86,2.754c-0.415,0.229-0.927,0.279-1.564,0.048c0.425-0.38,0.815-0.809,1.279-1.132
	c6.192-4.319,9.757-10.532,12.893-17.198c2.886-6.136,3.317-12.684,4.175-19.197c1.301-9.872,1.721-19.936,5.615-29.286
	c2.522-6.058,5.953-11.634,9.914-16.876c1.679-2.221,3.271-4.51,5.004-6.688c0.683-0.858,1.642-1.498,2.475-2.235
	C277.68,113.987,277.86,114.151,278.04,114.315z"/>
<path fill-rule="evenodd" clip-rule="evenodd" d="M136.474,128.554c0.402,0,0.848-0.133,0.994,0.02
	c3.217,3.369,6.608,6.643,8.19,11.175c0.308,0.881,0.174,2.183-0.272,3.014c-2.413,4.492-4.579,9.053-5.497,14.125
	c-0.625,3.46-0.144,6.721,1.505,9.817c2.019,3.791,4.18,7.515,6.021,11.39c3.061,6.439,3.081,12.995,0.519,19.677
	c-1.98,5.163-4.032,10.356-5.32,15.713c-1.32,5.485-1.78,11.18-2.557,16.791c-0.438,3.168-0.727,6.355-1.157,9.524
	c-0.07,0.513-0.524,0.973-1.005,1.813c-0.368-3.337-0.752-6.191-0.984-9.059c-0.398-4.942-0.934-9.891-0.992-14.841
	c-0.093-7.872,1.777-15.35,5.628-22.255c2.25-4.032,2.336-8.093,0.366-12.171c-2.602-5.384-5.576-10.6-7.953-16.077
	c-3.124-7.2-3.132-14.4,1.201-21.308c2.644-4.213,3.332-8.914,2.797-13.777C137.833,130.986,137.061,129.918,136.474,128.554z"/>
<path fill-rule="evenodd" clip-rule="evenodd" d="M0.412,113.341c2.215,2.591,4.528,5.105,6.627,7.787
	c5.758,7.356,9.313,15.81,11.797,24.723c0.807,2.893,1.104,5.932,1.588,8.911c0.891,5.477,2.197,10.936,2.487,16.446
	c0.257,4.884,1.447,9.392,3.302,13.761c1.579,3.719,3.428,7.351,5.479,10.832c1.947,3.307,4.676,5.998,7.958,8.074
	c0.94,0.595,1.832,1.266,2.745,1.901c-0.096,0.166-0.192,0.332-0.289,0.498c-0.696-0.351-1.379-0.729-2.089-1.05
	c-8.276-3.745-14.74-9.849-20.146-16.843c-4.182-5.41-7.803-11.471-8.99-18.433c-0.739-4.335-0.935-8.771-1.238-13.172
	c-0.475-6.879-0.313-13.849-1.381-20.627C7.014,128.229,4.573,120.531,0,113.734C0.137,113.604,0.274,113.473,0.412,113.341z"/>
<path fill-rule="evenodd" clip-rule="evenodd" d="M81.381,249.46c-3.136-0.245-5.734-0.235-8.25-0.686
	c-8.437-1.511-15.443-5.748-21.376-11.81c-4.453-4.55-9.713-7.954-15.164-11.127c-7.407-4.313-12.693-10.33-14.969-18.753
	c-0.659-2.439-1.397-4.855-1.854-7.43c0.2,0.287,0.407,0.57,0.6,0.863c1.859,2.812,3.489,5.813,5.629,8.393
	c2.79,3.362,6.792,4.99,10.936,5.992c7.359,1.779,14.293,4.523,20.421,8.977c4.964,3.609,8.959,8.253,12.888,12.95
	c2.754,3.293,5.801,6.342,8.688,9.525C79.677,247.178,80.315,248.101,81.381,249.46z"/>
<path fill-rule="evenodd" clip-rule="evenodd" d="M9.582,110.407c1.056,0.997,2.169,1.939,3.157,2.999
	c4.745,5.093,9.545,10.137,14.154,15.351c5.079,5.744,7.918,12.632,8.594,20.186c0.678,7.579,0.829,15.216,0.966,22.832
	c0.134,7.42,1.429,14.541,4.471,21.319c1.286,2.864,2.64,5.696,3.956,8.548c0.161,0.349,0.273,0.72,0.176,1.236
	c-1.049-0.935-2.199-1.779-3.13-2.818c-4.119-4.6-8.31-9.167-10.38-15.171c-1.655-4.795-3.589-9.519-4.848-14.416
	c-1.183-4.602-1.503-9.419-2.47-14.086c-0.707-3.409-1.847-6.728-2.794-10.087c-0.075-0.266-0.15-0.532,0.017-0.941
	c2.162,2.279,4.323,4.559,6.847,7.221c-2.544-16.031-8.214-30.114-19.363-41.755C9.15,110.686,9.366,110.546,9.582,110.407z"/>
<path fill-rule="evenodd" clip-rule="evenodd" d="M125.985,0.622c-1.351,0.602-2.661,1.32-4.057,1.785
	c-9.155,3.049-18.076,6.649-25.932,12.341c-9.542,6.913-18.296,14.743-25.835,23.84c-6.709,8.096-10.798,17.41-12.581,27.755
	c-0.018,0.103-0.121,0.19-0.478,0.723c-0.223-1.015-0.531-1.703-0.498-2.375c0.534-10.754,2.934-20.853,9.524-29.746
	c4.235-5.715,8.591-11.291,13.986-15.917c7.57-6.492,15.755-12.06,25.348-15.212c3.883-1.275,7.742-2.743,11.729-3.541
	c2.762-0.552,5.723-0.106,8.594-0.106C125.853,0.321,125.918,0.471,125.985,0.622z"/>
<path fill-rule="evenodd" clip-rule="evenodd" d="M143.245,163.419c6.829,0.322,12.033-3.341,16.826-7.374
	c6.51-5.478,12.697-11.349,18.882-17.201c5.616-5.313,11.143-10.729,16.522-16.283c4.292-4.431,8.046-9.43,9.267-15.579
	c1.275-6.422,0.441-12.788-2.797-18.666c-0.491-0.892-0.941-1.807-1.209-2.957c0.285,0.183,0.667,0.301,0.841,0.559
	c3.118,4.636,6.417,9.327,6.773,15.055c0.328,5.268-0.11,10.453-3.441,15.171c-2.509,3.555-4.755,7.294-7.875,10.349
	c-5.923,5.799-12.047,11.395-17.896,17.265c-3.794,3.807-7.21,7.987-10.866,11.935c-3.249,3.508-6.526,6.994-9.932,10.348
	c-1.579,1.556-3.444,2.84-5.267,4.122c-1.548,1.09-3.203,1.054-4.88,0.094C146.607,169.347,143.759,165.599,143.245,163.419z"/>
<path fill-rule="evenodd" clip-rule="evenodd" d="M209.006,198.769c6.426-4.264,9.062-10.953,11.847-17.492
	c1.908-4.478,3.516-9.081,5.375-13.581c0.435-1.054,1.346-1.91,2.392-2.66c-0.527,2.623-1.056,5.246-1.584,7.87
	c0.171,0.055,0.343,0.11,0.514,0.165c5.37-4.295,10.938-8.294,14.232-14.742c3.059-5.984,7.094-11.376,11.928-16.108
	c0.306-0.301,0.686-0.526,1.284-0.54c-0.898,1.369-1.933,2.669-2.668,4.121c-2.047,4.039-3.677,8.173-4.538,12.72
	c-1.311,6.917-4.512,13.059-9.169,18.457c-4.914,5.697-10.711,10.246-17.054,14.207c-2.965,1.851-5.755,3.98-8.659,5.932
	c-0.948,0.636-1.996,1.129-3.024,1.635C209.645,198.868,209.301,198.769,209.006,198.769z"/>
<path fill-rule="evenodd" clip-rule="evenodd" d="M221.403,63.3c-0.365-0.917-0.767-1.821-1.089-2.752
	c-1.699-4.911-3.295-9.836-6.017-14.349c-4.082-6.771-9.378-12.436-15.193-17.693c-3.591-3.246-6.916-6.817-10.706-9.803
	c-5.671-4.466-11.949-7.999-18.653-10.763c-4.968-2.049-9.865-4.269-14.789-6.425c-0.14-0.061-0.216-0.27-0.535-0.694
	c0.721-0.18,1.278-0.383,1.853-0.452c5.798-0.701,11.229,0.901,16.353,3.232c6.98,3.175,13.967,6.458,20.521,10.406
	c4.019,2.42,7.396,6.009,10.777,9.359c8.219,8.141,12.641,18.462,16.142,29.232c0.933,2.868,1.511,5.854,2.162,8.806
	c0.123,0.558-0.176,1.208-0.279,1.817C221.767,63.247,221.584,63.273,221.403,63.3z"/>
<path fill-rule="evenodd" clip-rule="evenodd" d="M241.724,121.625c2.118-3.852,3.248-7.966,3.77-12.269
	c0.521-4.283,1.184-8.549,1.825-13.113c-0.67,0.238-0.913,0.249-0.966,0.354c-1.752,3.512-3.457,7.047-5.257,10.535
	c-0.244,0.474-0.95,0.71-1.511,0.911c1.933-5.604,2.477-11.32,3.368-16.964c0.809-5.117,1.354-10.214,4.263-14.846
	c2.781-4.432,2.711-9.708,1.965-14.678c-0.832-5.533-2.371-10.964-3.736-16.406c-0.347-1.379-1.211-2.627-1.829-3.938
	c-0.208-0.44-0.395-0.891-0.59-1.336c0.149-0.077,0.299-0.153,0.448-0.23c0.706,1.07,1.599,2.062,2.09,3.224
	c2.799,6.627,5.659,13.236,8.159,19.978c0.971,2.617,1.281,5.546,1.499,8.363c0.701,9.081-0.301,18.001-3.073,26.695
	c-1.705,5.345-3.251,10.752-5.243,15.987c-1.073,2.819-2.938,5.337-4.447,7.989C242.214,121.797,241.969,121.711,241.724,121.625z"
	/>
<path fill-rule="evenodd" clip-rule="evenodd" d="M263.168,118.754c-0.564,1.601-0.982,3.271-1.717,4.79
	c-3.479,7.201-7.155,14.314-12.897,20.036c-6.638,6.612-13.392,13.102-21.055,18.573c-1.648,1.177-2.916,2.881-4.398,4.301
	c-0.516,0.494-1.15,0.863-1.97,1.078c8.844-9.131,11.771-21.263,16.446-32.483c0.182,0.067,0.363,0.134,0.546,0.201
	c-0.154,2.252-0.309,4.502-0.463,6.753c0.158,0.036,0.316,0.072,0.475,0.108c1.541-1.8,3.031-3.644,4.631-5.389
	c3.279-3.574,6.845-6.783,11.167-9.124c3.828-2.074,7.118-4.795,8.755-9.106C262.848,118.578,263.008,118.666,263.168,118.754z"/>
<path fill-rule="evenodd" clip-rule="evenodd" d="M236.3,78.178c-0.794-3.417-1.589-6.833-2.384-10.25
	c-0.168-0.002-0.336-0.004-0.505-0.006c-0.475,1.887-0.95,3.774-1.425,5.661c-0.175-0.007-0.351-0.014-0.524-0.021
	c-0.127-1.604-0.283-3.206-0.373-4.811c-0.331-5.949-1.479-11.668-5.109-16.568c-2.156-2.909-2.29-6.167-2.073-9.52
	c0.55-8.5-1.499-16.171-7.169-22.683c-1.501-1.723-3.155-3.313-4.818-5.047c3.979,1.449,7.21,3.906,9.904,7.022
	c5.065,5.857,9.389,12.198,11.237,19.856c0.56,2.315,0.449,4.785,0.744,7.172c0.472,3.828,1.045,7.642,1.541,11.467
	c0.722,5.565,2.01,11.081,1.52,16.755c-0.027,0.337-0.124,0.667-0.189,1C236.551,78.197,236.425,78.188,236.3,78.178z"/>
<path fill-rule="evenodd" clip-rule="evenodd" d="M41.287,68.744c-0.148-3.57-0.317-7.14-0.441-10.71
	c-0.188-5.397,1.323-10.306,3.799-15.1c1.416-2.74,2.205-5.875,2.855-8.922c1.246-5.832,4.083-10.688,8.829-14.141
	c4.819-3.507,10.003-6.513,15.036-9.725c0.278-0.178,0.632-0.237,1.051-0.154c-1.967,1.772-4.091,3.402-5.872,5.346
	c-4.154,4.536-8.801,8.768-10.915,14.782c-0.688,1.959-1.251,4.106-1.206,6.153c0.163,7.315-2.469,13.42-7.27,18.782
	c-3.366,3.759-5.625,8.015-5.241,13.286c0.01,0.133-0.126,0.276-0.194,0.415C41.574,68.751,41.431,68.748,41.287,68.744z"/>
<path fill-rule="evenodd" clip-rule="evenodd" d="M110.315,157.546c-4.451-8.635-11.262-14.33-17.981-20.17
	c-5.748-4.997-11.58-9.951-15.91-16.367c-4.288-6.353-6.624-13.285-6.414-20.971c0.116-4.263,1.191-8.362,2.726-12.333
	c0.529-1.372,1.11-2.726,1.805-3.999c-0.56,2.748-1.533,5.485-1.603,8.246c-0.22,8.756,0.366,17.432,5.408,25.071
	c2.457,3.721,5.685,6.719,9.131,9.533c4.677,3.821,9.257,7.766,13.814,11.73c2.146,1.866,4.174,3.873,6.201,5.873
	c2.951,2.91,4.162,6.48,3.721,10.582C111.126,155.542,110.723,156.308,110.315,157.546z"/>
<path fill-rule="evenodd" clip-rule="evenodd" d="M146.17,117.968c-1.231-3.454-2.669-6.742-6.549-8.121
	c-0.181,1.232-0.346,2.363-0.512,3.494c-0.296,0.032-0.591,0.064-0.887,0.097c-0.618-1.63-1.223-3.266-1.859-4.889
	c-0.63-1.603-1.294-3.191-2.063-5.084c4.931,1.805,9.729,3.279,12.822,7.809c3.661,5.36,5.844,11.354,7.862,17.44
	c1.391,4.194,3.307,8.056,7.019,10.743c0.168,0.122,0.237,0.382,0.511,0.845c-0.596,0.12-1.024,0.321-1.419,0.267
	c-2.853-0.391-5.756-0.604-8.532-1.309c-4.895-1.243-7.417-4.842-8.648-9.54c-0.916-3.492-1.874-6.977-2.895-10.439
	c-0.251-0.85-0.856-1.589-1.223-2.412c-0.173-0.391-0.371-1.019-0.188-1.256c0.229-0.296,0.911-0.516,1.265-0.391
	c1.057,0.371,2.101,0.845,3.051,1.438c0.691,0.433,1.228,1.116,1.832,1.688C145.895,118.221,146.033,118.094,146.17,117.968z"/>
<path fill-rule="evenodd" clip-rule="evenodd" d="M198.054,43.396c1.967,0.337,4.053,0.368,5.881,1.069
	c5.689,2.183,10.662,5.409,12.767,11.516c2.776,8.055,4.066,16.306,1.693,24.71c-0.615,2.18-1.698,4.284-2.876,6.237
	c-1.63,2.704-5.788,2.667-7.463-0.03c-0.354-0.569-0.205-1.805,0.189-2.435c8.019-12.793,5.774-25.525-3.614-35.764
	c-1.67-1.822-4.138-2.913-6.236-4.343c-0.169-0.116-0.332-0.243-0.498-0.365C197.949,43.794,198.001,43.595,198.054,43.396z"/>
<path fill-rule="evenodd" clip-rule="evenodd" d="M267.675,74.906c1.965,4.446,3.108,9.07,3.291,13.978
	c0.206,5.552-0.353,10.992-1.795,16.345c-1.111,4.12-3.672,7.174-7.219,9.417c-3.063,1.938-6.361,3.553-9.233,5.736
	c-2.915,2.215-5.499,4.886-8.099,7.486c-1.164,1.165-2.014,2.646-3.199,4.242c0.091-0.611,0.112-0.973,0.2-1.318
	c1.376-5.392,4.03-10.11,7.753-14.202c3.704-4.071,7.855-7.777,11.231-12.096c5.395-6.899,8.462-14.787,7.798-23.759
	c-0.101-1.364-0.63-2.696-0.946-4.046c-0.129-0.549-0.216-1.108-0.321-1.663C267.316,74.986,267.496,74.946,267.675,74.906z"/>
<path fill-rule="evenodd" clip-rule="evenodd" d="M121.688,101.146c2.295,2.566,4.589,5.134,6.884,7.7
	c0.158-0.156,0.316-0.312,0.474-0.468c-4.458-7.714-8.659-15.687-18.583-17.909c2.065-1.811,5.708-1.843,8.578-0.148
	c7.364,4.35,11.996,11.013,15.254,18.638c2.201,5.151,3.813,10.557,5.612,15.873c0.205,0.606-0.072,1.377-0.126,2.071
	c-0.689-0.092-1.436-0.041-2.056-0.297c-3.044-1.259-4.832-3.938-6.924-6.273c-3.241-3.618-6.349-7.329-7.862-12.059
	c-0.719-2.248-1.279-4.545-1.912-6.821C121.248,101.35,121.468,101.248,121.688,101.146z"/>
<path fill-rule="evenodd" clip-rule="evenodd" d="M27.921,42.055c-1.279,3.524-2.708,7-3.804,10.58
	c-2.2,7.193-1.331,14.093,1.643,21.029c2.351,5.484,3.81,11.313,3.153,17.48c-0.294,2.769-0.05,5.595-0.05,8.395
	c-0.171,0.02-0.343,0.038-0.514,0.058c-0.255-1.195-0.369-2.442-0.789-3.576c-2.264-6.112-4.408-12.282-6.977-18.267
	c-2.417-5.634-3.498-11.234-1.91-17.278C20.46,53.677,23.431,47.506,27.921,42.055z"/>
<path fill-rule="evenodd" clip-rule="evenodd" d="M72.477,50.023c-1.519,2.689-3.062,5.057-4.247,7.592
	c-3.496,7.476-3.947,15.073-0.751,22.834c0.786,1.912,1.105,4.053,1.364,6.124c0.103,0.812-0.551,1.719-0.86,2.583
	c-0.818-0.412-1.927-0.615-2.403-1.274c-1.683-2.334-3.418-4.697-4.645-7.28c-3.423-7.206-2.203-14.378,1.351-21.064
	C64.469,55.428,67.962,52.224,72.477,50.023z"/>
<path fill-rule="evenodd" clip-rule="evenodd" d="M5.478,81.721c0.539,6.703,3.283,12.323,8.283,16.803
	c1.931,1.731,3.952,3.362,5.92,5.053c3.031,2.602,5.189,5.86,7.068,9.344c2.594,4.809,3.576,10.124,4.928,15.326
	c0.299,1.152,0.608,2.302,0.755,3.494c-1.887-3.553-3.832-7.077-5.646-10.667c-1.9-3.763-4.244-7.098-7.389-9.998
	c-3.808-3.512-7.99-6.728-10.711-11.289c-2.534-4.25-4.04-8.773-3.746-13.8c0.083-1.417,0.012-2.843,0.012-4.265
	C5.128,81.721,5.303,81.721,5.478,81.721z"/>
<path fill-rule="evenodd" clip-rule="evenodd" d="M129.15,122.507c4.106,3.821,4.824,8.62,1.779,12.475
	c-3.216,4.069-6.841,7.815-10.274,11.712c-2.997,3.401-6.169,6.689-7.387,11.263c-0.066,0.249-0.313,0.448-0.642,0.583
	c-0.071-4.045,0.929-7.594,3.954-10.542c3.023-2.945,6.359-5.795,8.54-9.316c2.244-3.623,3.38-7.968,4.729-12.086
	C130.185,125.571,129.473,124.206,129.15,122.507z"/>
</svg>
