<?xml version="1.0" encoding="utf-8"?>
<!-- Generator: Adobe Illustrator 16.0.0, SVG Export Plug-In . SVG Version: 6.00 Build 0)  -->
<!DOCTYPE svg PUBLIC "-//W3C//DTD SVG 1.1//EN" "http://www.w3.org/Graphics/SVG/1.1/DTD/svg11.dtd">
<svg version="1.1" id="Layer_1" xmlns="http://www.w3.org/2000/svg" xmlns:xlink="http://www.w3.org/1999/xlink" x="0px" y="0px"
	 width="410.256px" height="393.385px" viewBox="0 0 410.256 393.385" enable-background="new 0 0 410.256 393.385"
	 xml:space="preserve">
<path fill-rule="evenodd" clip-rule="evenodd" d="M134.922,240.546c-6.346,1.443-12.833,2.445-19.008,4.423
	c-12.281,3.935-21.108-2.611-20.359-15.557c0.029-0.499-0.009-1.022,0.128-1.492c3.921-13.396,4.417-26.807,0.494-40.323
	c-0.426-1.468,0.199-3.281,0.483-4.909c2.189-12.528,0.973-24.676-2.218-37.034c-2.857-11.068-3.678-22.653-5.597-33.977
	c-0.999-5.894-2.241-11.763-3.756-17.543c-0.612-2.337-1.949-4.638-3.459-6.56c-9.884-12.581-9.259-30.55,1.632-42.645
	c4.115-4.57,10.752-6.271,16.794-3.561c5.043,2.263,5.445,7.459,5.287,12.056c-0.354,10.317-1.364,20.61-1.982,30.921
	c-0.359,5.983-0.544,11.98-0.688,17.975c-0.169,7.026,0.958,13.618,3.573,20.401c5.173,13.423,7.104,27.646,7.349,42.114
	c0.152,8.955,0.76,17.957,1.976,26.826c1.568,11.441,8.213,19.141,19.463,22.296c7.203,2.021,14.48,3.917,21.842,5.189
	c8.009,1.383,14.892-2.149,20.467-7.401c22.638-21.325,40.349-45.752,45.45-77.327c1.502-9.299,2.054-18.838,2.045-28.266
	c-0.007-7.817-3.334-14.9-8.362-20.986c-22.62-27.38-49.661-48.476-83.706-60.102c-26.463-9.036-52.145-8.569-77.78,3.109
	C34.375,37.567,20.636,52.88,12.809,73.84c-1.805,4.833-3.249,9.801-5.024,14.646c-2.407,6.569-2.302,12.982,0.397,19.465
	c1.339,3.218,2.81,6.577,3.083,9.965c0.154,1.906-1.743,4.267-3.31,5.823c-0.4,0.396-3.914-1.089-4.523-2.396
	c-1.627-3.497-3.735-7.487-3.396-11.067c2.517-26.499,10.483-50.925,30.1-70.045c19.693-19.194,43.7-27.131,70.999-26.452
	c22.994,0.571,44.826,5.405,65.816,14.928c5.704,2.587,12.572,2.505,18.788,4.106c3.032,0.781,6.683,1.878,8.523,4.1
	c7.854,9.479,16.522,17.76,27.792,23.063c1.456,0.685,2.807,1.874,3.845,3.129c16.465,19.888,24.188,41.426,13.555,66.973
	c-7.865,18.893-14.83,38.158-22.615,57.086c-2.644,6.428-6.388,12.436-9.945,18.448c-5.532,9.35-12.635,17.104-22.885,21.56
	c-3.193,1.387-6.185,3.27-9.181,5.07c-12.202,7.328-25.261,11.07-39.608,9.583C135.121,241.398,135.021,240.972,134.922,240.546z"/>
<path fill-rule="evenodd" clip-rule="evenodd" d="M316.679,194.006c-0.619-6.087-1.342-12.166-1.836-18.264
	c-1.047-12.921-1.48-25.916-3.168-38.749c-0.8-6.091-3.481-12.069-6.056-17.761c-3.578-7.91-12.731-9.581-17.816,0.268
	c-14.957,28.97-33.283,56.163-45.376,86.653c-5.025,12.671-10.801,25.043-15.932,37.675c-1.54,3.792-2.606,7.961-2.903,12.029
	c-0.409,5.609,3.163,8.682,8.756,8.116c6.622-0.67,13.217-1.622,19.822-2.455c1.15-0.145,2.329-0.558,3.442-0.423
	c17.486,2.115,34.285-3.2,51.43-4.739c4.115-0.37,8.206-1.259,12.242-2.193c4.396-1.017,6.91-3.766,6.476-8.966
	c6.712,1.74,12.175-0.688,18.127-3.225c7.221-3.079,15.304-4.261,23.117-5.706c1.336-0.247,3.677,2.007,4.634,3.644
	c0.674,1.152,0.309,3.565-0.519,4.791c-1.266,1.875-3.073,3.944-5.098,4.651c-8.716,3.043-17.593,5.626-26.416,8.36
	c-2.989,0.927-6.295,1.312-8.879,2.89c-1.556,0.949-2.88,3.757-2.802,5.668c0.661,16.099,1.88,32.171,5.617,47.902
	c1.984,8.352,4.916,16.495,6.587,24.897c1.532,7.701,1.5,15.567-3.77,24.329c-1.738-5.326-4.045-9.468-4.303-13.733
	c-0.771-12.777-0.563-25.611-1.124-38.406c-0.201-4.59-1.62-9.114-2.285-13.697c-1.312-9.04-2.594-18.087-3.68-27.155
	c-0.821-6.857-2.75-9.327-9.342-8.57c-11.549,1.325-22.99,3.56-34.507,5.197c-14.64,2.082-29.3,4.03-43.971,5.874
	c-7.234,0.909-14.165,11.66-11.63,18.598c0.735,2.013,1.688,4.06,3,5.729c6.862,8.728,0.138,22.774-8.519,26.432
	c-13.079,5.525-27.456,0.021-30.73-12.162c-1.999-7.438,1.941-13.166,5.734-18.879c1.006-1.516,2.444-2.781,3.261-4.378
	c1.683-3.289-0.329-7.045-4.012-7.265c-2.424-0.145-5.104-0.024-7.308,0.868c-8.45,3.421-16.543,7.863-25.186,10.623
	c-6.03,1.925-12.729,1.85-19.153,2.336c-0.857,0.065-2.694-1.912-2.597-2.779c0.136-1.221,1.457-2.976,2.614-3.307
	c7.194-2.063,14.565-3.526,21.725-5.692c12.101-3.66,24.273-7.225,36.012-11.854c3.596-1.418,6.925-5.726,8.578-9.498
	c9.608-21.934,18.876-44.023,27.86-66.221c5.488-13.559,9.707-27.647,15.535-41.046c4.559-10.479,9.697-21.007,16.4-30.182
	c9.911-13.565,20.354-26.891,33.381-37.868c3.531-2.976,6.869-2.954,10.516-1.31c4.089,1.844,3.457,5.48,3.042,9.063
	c-0.514,4.435-1.164,8.916-1.019,13.353c0.89,27.124,1.992,54.24,3.01,81.359c0.063,1.659,0.008,3.323,0.008,4.984
	C317.341,193.878,317.01,193.943,316.679,194.006z"/>
<path fill-rule="evenodd" clip-rule="evenodd" d="M362.893,213.679c-0.955,3.807-2.475,8.266-7.5,10.399
	c-1.982,0.842-4.039,1.522-5.981,2.445c-2.581,1.228-5.148,2.814-7.724,0.215c-2.846-2.873-4.765-6.557-3.04-10.339
	c2.492-5.467,6.147-10.293,12.266-12.37C358.376,201.496,362.94,204.811,362.893,213.679z"/>
<path fill-rule="evenodd" clip-rule="evenodd" d="M367.556,97.533c12.491,4.912,19.782,13.923,15.24,18.987
	c-0.439-0.972-1.109-1.784-1.139-2.618c-0.232-6.775-4.472-10.339-10.031-13.008c-3.613-1.735-6.274-1.288-8.271,2.491
	c-1.148,2.175-2.819,4.073-4.256,6.096c-0.697-0.441-1.396-0.883-2.094-1.323c2.21-3.494,3.805-7.685,6.779-10.312
	c4.035-3.561,5.779-8.031,2.275-10.292c-1.233-0.796-3.251-0.675-4.867-0.52c-4.394,0.421-8.838,1.805-13.112,1.363
	c-2.311-0.239-5.439-3.108-6.101-5.397c-0.525-1.816,1.584-5.25,3.482-6.764c7.896-6.293,15.909-3.604,19.573,5.999
	c0.524,1.376,1.918,3.039,3.225,3.39c5.164,1.381,4.171,4.157,2.129,7.404C369.517,94.418,368.643,95.806,367.556,97.533z
	 M360.634,86.903c0.017-0.717,0.034-1.433,0.052-2.149c-3.226-1.983-6.366-4.129-9.715-5.878c-1.502-0.784-3.698-1.475-5.066-0.927
	c-1.318,0.527-2.962,2.935-2.692,4.109c0.412,1.798,2.187,4.427,3.662,4.624C351.389,87.288,356.037,86.903,360.634,86.903z"/>
<path fill-rule="evenodd" clip-rule="evenodd" d="M108.86,327.432c-2.046,4.078,1.414,8.419-2.114,12.808
	c-1.527,1.899-2.002,6.596-0.702,8.366c2.037,2.774,5.43,1.961,7.992-1.087c1.347-1.602,3.618-2.427,6.06-2.661
	c-2.145,1.558-4.29,3.115-7.242,5.259c5.575,1.199,10.199,3.03,14.792,2.952c4.85-0.081,3.86-4.566,4.462-8.265
	c0.392,1.16,1.47,2.732,1.062,3.413c-2.305,3.838-4.349,8.222-7.688,10.937c-3.057,2.485-11.695-0.354-13.905-3.837
	c-1.551-2.442-3.102-3.731-6.025-3.045c-3.696,0.868-3.818-1.712-3.655-4.152c0.142-2.121,0.684-4.215,1.155-6.933
	c-8.6,0.113-16.072-1.959-21.542-8.488c-0.58-0.692-0.175-2.209-0.227-3.343c0.637-0.397,1.273-0.794,1.91-1.191
	c0.453,1.021,0.844,2.075,1.367,3.06c3.178,5.98,8.963,9.192,15.58,7.92c1.778-0.342,3.71-2.468,4.592-4.257
	c1.164-2.362,1.363-5.2,1.977-7.833C107.425,327.18,108.142,327.306,108.86,327.432z"/>
<path fill-rule="evenodd" clip-rule="evenodd" d="M233.09,376.993c0.662-2.804,1.473-5.583,1.945-8.419
	c0.527-3.172,1.496-5.174,5.367-3.081c0,3.286,0,6.605,0,9.926c0.732,0.156,1.465,0.313,2.196,0.471
	c1.721-4.233,3.44-8.466,5.222-12.851c0.661,0.413,2.118,1.323,3.222,2.013c0,5.381,0,10.423,0,16.361
	c-0.318,0.03-1.771,0.165-3.103,0.289c0-3.535,0-6.693,0-9.853c-0.483-0.186-0.966-0.372-1.449-0.558
	c-2.558,4.829-5.116,9.657-7.675,14.486c-0.588-0.074-1.177-0.148-1.766-0.222c-0.319-3.538-0.64-7.076-0.953-10.539
	c-4.256,2.124-1.435,9.075-6.819,11.448c-0.822-7.402-1.547-13.926-2.271-20.449c0.263-0.156,0.524-0.312,0.787-0.467
	c1.438,3.695,2.875,7.392,4.313,11.088C232.434,376.755,232.762,376.875,233.09,376.993z"/>
<path fill-rule="evenodd" clip-rule="evenodd" d="M386.491,272.26c-3.007-2.024-5.682-3.825-8.356-5.626
	c-0.447,0.339-0.896,0.679-1.344,1.018c2.107,3.697,4.273,7.363,6.281,11.114c0.549,1.025,0.621,2.306,0.912,3.469
	c-1.216-0.002-2.625,0.391-3.608-0.09c-2.07-1.012-3.916-2.481-5.892-3.787c-1.69,5.161,8.08,5.908,4.703,12.067
	c-5.919-3.331-11.453-6.446-16.987-9.562c0.064-0.388,0.128-0.775,0.191-1.163c3.53,0.933,7.06,1.865,10.589,2.798
	c0.335-0.2,0.669-0.399,1.004-0.6c-1.985-2.193-3.762-4.638-6.01-6.519c-2.827-2.364-2.994-4.061,0.056-5.671
	c3.052,1.955,5.877,3.764,8.701,5.573c0.589-0.62,1.179-1.239,1.768-1.859c-2.377-3.702-4.755-7.403-7.334-11.418
	c0.393-0.207,1.975-1.041,3.079-1.624c4.561,3.155,8.841,6.115,13.648,9.44C387.737,270.093,387.067,271.258,386.491,272.26z"/>
<path fill-rule="evenodd" clip-rule="evenodd" d="M42.884,186.652c-2.463,2.664-3.546,3.836-4.182,4.523
	c-4.893-0.834-9.535-1.706-14.203-2.396c-4.17-0.617-2.029-2.616-1.537-3.865c3.46,0.746,6.602,1.425,9.743,2.103
	c0.309-0.455,0.617-0.91,0.925-1.364c-3.158-2.638-6.354-5.232-9.454-7.937c-1.02-0.89-1.792-2.063-2.676-3.107
	c1.418-0.441,2.866-1.317,4.247-1.222c2.084,0.146,4.121,0.971,6.269,1.53c-0.333-5.518-9.514-2.959-8.67-9.798
	c6.784,1.094,13.037,2.102,19.29,3.109c0.048,0.365,0.096,0.729,0.144,1.095c-3.716,0.323-7.432,0.646-11.147,0.97
	c-0.225,0.354-0.45,0.71-0.675,1.065c3.563,1.811,7.125,3.621,11.175,5.679c-0.233,1.012-0.539,2.337-0.846,3.666
	c-3.628-0.799-6.91-1.521-10.191-2.243c-0.172,0.516-0.345,1.031-0.517,1.546C33.498,183.409,35.224,188.354,42.884,186.652z"/>
<path fill-rule="evenodd" clip-rule="evenodd" d="M209.193,235.976c0.081,4.55-6.934,12.057-11.396,12.194
	c-3.115,0.097-6.953-4.754-5.47-7.939c1.672-3.592,4.092-7.29,7.171-9.665C204.161,226.971,209.087,230.032,209.193,235.976z"/>
<path fill-rule="evenodd" clip-rule="evenodd" d="M399.431,176.458c1.632-8.13-2.221-13.315-5.866-18.588
	c-0.496,0.013-0.992,0.025-1.488,0.038c-0.428,1.753-1.453,3.611-1.168,5.24c0.824,4.698,2.456,9.261,3.195,13.967
	c0.333,2.114-0.704,4.443-1.381,8.081c-8.654-9.264-11.347-19.487-15.056-29.202c0.393-0.272,0.785-0.545,1.178-0.817
	c3.738,5.502,7.477,11.004,11.215,16.506c0.338-0.168,0.675-0.335,1.012-0.503c-0.577-2.514-1.494-5.009-1.629-7.545
	c-0.116-2.19,0.053-4.826,1.188-6.545c1.497-2.268,3.929-3.248,5.667,0.385c1.794,3.747,3.826,7.38,5.656,11.11
	C403.299,171.328,403.328,173.846,399.431,176.458z"/>
<path fill-rule="evenodd" clip-rule="evenodd" d="M214.126,10.652c0.737,2.831,1.546,5.93,2.531,9.709
	c5.603-3.049,6.445-8.2,8.19-12.833c0.597-1.583,1.837-2.923,2.783-4.374c0.544,1.504,1.12,2.997,1.628,4.513
	c2.04,6.101,4.05,12.21,6.095,18.309c0.342,1.021,0.8,2.004,1.205,3.004c-0.376,0.239-0.751,0.479-1.126,0.719
	c-3.048-4.279-6.096-8.558-9.559-13.418c-1.477,2.291-2.547,4.085-3.749,5.786c-1.938,2.741-4.563,3.403-7.377,1.641
	c-2.503-1.567-3.485-3.464-1.426-6.577C214.434,15.449,213.925,12.696,214.126,10.652z"/>
<path fill-rule="evenodd" clip-rule="evenodd" d="M251.021,357.254c4.186,2.885,8.37,5.77,12.994,8.957
	c0.68-2.413,1.232-4.417,1.808-6.415c1.081-3.75,4.145-5.451,7.53-4.194c2.988,1.109,3.232,2.248,1.347,7.101
	c-1.207-1.02-2.347-1.983-3.685-3.113c-5.23,5.778-0.021,13.803-3.712,19.56c-5.935-7.44-11.352-14.229-16.769-21.02
	C250.696,357.837,250.858,357.545,251.021,357.254z"/>
<path fill-rule="evenodd" clip-rule="evenodd" d="M257.036,19.169c-1.583,2.87-3.167,5.741-4.935,8.946
	c-1.508-0.745-2.767-1.367-3.827-1.891c1.343-3.428,2.547-6.501,3.751-9.574c-0.716-0.43-1.432-0.859-2.147-1.29
	c-3.071,2.853-6.143,5.705-9.675,8.986c-0.126-0.106-1.395-1.175-2.051-1.729c1.558-4.828,3.272-9.229,4.335-13.78
	c0.616-2.643,0.785-2.914,4.003-1.105c-1.092,3.188-2.176,6.354-3.261,9.52c0.429,0.305,0.857,0.609,1.286,0.914
	c4.044-3.646,8.087-7.291,12.13-10.937c0.458,0.146,0.916,0.292,1.374,0.438c-0.259,1.832-0.536,3.662-0.771,5.498
	c-0.235,1.847-0.429,3.699-0.641,5.549C256.751,18.867,256.894,19.018,257.036,19.169z"/>
<path fill-rule="evenodd" clip-rule="evenodd" d="M191.637,3.007c1.065,4.762,1.952,9.574,3.294,14.257
	c0.472,1.646,1.996,4.111,3.158,4.179c1.724,0.101,4.159-1.161,5.214-2.622c2.488-3.44,4.124-7.546,1.263-11.541
	c-3.348-4.676-10.952-7.319-15.497-5.825c-1.196,0.394-2.335,0.957-4.457,1.841c5.004-4.54,13.777-4.225,19.709-0.065
	c4.646,3.257,5.144,7.956,1.7,16.063c-2.002,4.714-6.746,6.924-13.26,5.821c0.595-7.385-3.416-14.399-3.875-21.823
	C189.803,3.197,190.72,3.102,191.637,3.007z"/>
<path fill-rule="evenodd" clip-rule="evenodd" d="M301.685,366.731c-3.393-4.713-6.345-9.04-9.575-13.149
	c-0.858-1.093-2.802-2.335-3.836-2.045c-1.424,0.4-3.167,2.004-3.541,3.418c-2.111,7.972,0.227,13.101,9.494,14.188
	c2.228,0.262,4.512,0.039,6.881,0.039c-5.983,3.712-14.671,2.736-17.347-1.866c-4.795-8.246-1.935-17.134,6.896-21.431
	C295.746,351.255,302.775,363.837,301.685,366.731z"/>
<path fill-rule="evenodd" clip-rule="evenodd" d="M281.333,19.25c3.451,1.472,6.956,2.481,9.911,4.358
	c3.141,1.995,4.795,5.414,3.358,9.118c-1.486,3.836-5.011,4.414-9.729,3.913c1.356-0.396,1.866-0.438,2.257-0.676
	c2.233-1.364,6.238-2.759,6.25-4.173c0.021-2.388-1.965-5.751-4.091-6.927c-2.061-1.141-5.979-0.991-7.96,0.305
	c-2.584,1.69-4.091,5.048-5.992,7.737c-0.361,0.512-0.224,1.412-0.625,1.854c-1.045,1.151-2.18,2.27-3.463,3.125
	c-0.333,0.223-1.963-0.625-1.939-0.885c0.146-1.584,0.076-3.976,1.03-4.57c6.35-3.959,6.294-10.907,8.432-16.836
	c0.471-1.307,1.109-2.576,1.875-3.726c0.112-0.169,1.978,0.391,1.994,0.674c0.08,1.368-0.107,2.774-0.374,4.134
	C282.08,17.619,281.611,18.507,281.333,19.25z"/>
<path fill-rule="evenodd" clip-rule="evenodd" d="M358.34,311.271c-2.354-2.394-2.729-7.64-8.425-5.456
	c0.479-5.363-3.602-6.498-7.183-8.164c-3.594-1.672-7.001-3.538-5.48-8.525c5.398-1.378,8.914,0.05,11.95,4.393
	c2.699,3.861,5.839,7.418,8.484,11.313c1.167,1.719,1.592,3.942,2.354,5.936C359.474,310.934,358.906,311.103,358.34,311.271z"/>
<path fill-rule="evenodd" clip-rule="evenodd" d="M45.608,142.316c1.045,3.994,6.056,2.146,9.77,3.336
	c2.47,0.792,4.753,2.286,6.932,3.746c0.32,0.215-0.243,2.818-0.667,2.899c-2.665,0.506-5.918,1.669-8.025,0.649
	c-6.175-2.991-11.957-6.822-17.754-10.541c-0.913-0.585-1.103-2.296-1.567-3.353C38.026,140.129,41.295,141.072,45.608,142.316z"/>
<path fill-rule="evenodd" clip-rule="evenodd" d="M135.617,364.375c0.794-6.972,1.459-12.809,2.126-18.654
	c0.622,0.061,1.203,0.078,1.206,0.124c0.241,4.889,3.306,6.368,7.626,7.698c6.741,2.074,8.274,7.698,4.62,13.12
	c-2.532,3.757-5.868,3.409-9.167,1.944C139.543,367.503,137.415,365.593,135.617,364.375z M148.279,365.363
	c0.349-0.396,2.244-1.573,2.495-3.032c0.569-3.307-3.127-7.22-6.869-6.821c-2.069,0.221-5.625,2.723-5.54,3.997
	C138.669,364.018,142.335,365.459,148.279,365.363z"/>
<path fill-rule="evenodd" clip-rule="evenodd" d="M345.795,64.229c-2.101,3.488-3.852,6.113-5.305,8.895
	c-1.314,2.515-2.305,5.199-3.666,8.334c-0.481-0.876-7.054-12.823-7.054-12.823c-2.666-2.929-2.916-7.991-0.515-10.417
	c3.901-3.941,7.58-4.353,11.246-0.792C342.591,59.453,344.129,62.047,345.795,64.229z M332.621,57.955
	c-0.635,1.347-2.145,3.253-2.356,5.295c-0.355,3.415,3.59,7.755,6.237,6.93c1.969-0.614,4.437-2.432,4.966-4.221
	C342.329,63.045,336.98,57.79,332.621,57.955z"/>
<path fill-rule="evenodd" clip-rule="evenodd" d="M195.324,377.856c3.121,2.82,6.639,5.102,10.768,3.161
	c5.414-2.543,5.842-8.078,6.209-13.227c0.29-4.074,0.073-4.09,5.269-6.088c-0.775,3.038-1.716,5.161-1.791,7.314
	c-0.211,6.051,0.007,12.116-0.132,18.172c-0.022,0.996-0.994,1.97-1.527,2.954c-0.925-0.913-2.223-1.68-2.66-2.786
	c-0.358-0.906,0.306-2.218,0.667-4.163C206.125,382.418,198.628,385.717,195.324,377.856z"/>
<path fill-rule="evenodd" clip-rule="evenodd" d="M410.256,224.6c-4.021,0-6.961,0-10.033,0c1.721-0.463,3.378-0.909,5.036-1.354
	c0.115-0.473,0.231-0.946,0.348-1.419c-4.927-2.286-9.854-4.572-14.78-6.858c-0.494,0.269-0.989,0.536-1.483,0.805
	c1.09,5.053,2.181,10.105,3.275,15.18c-0.116-0.027-12.9-3.056-12.9-3.056c-0.051-0.215-0.104-0.43-0.154-0.646
	c3.054-0.534,6.107-1.069,9.718-1.701c-0.592-3.345-1.126-6.363-1.445-8.163c-2.593-1.608-4.215-2.613-5.837-3.619
	c1.152-1.275,2.305-2.551,3.925-4.344c-0.143-0.475-0.551-1.829-0.981-3.259c0.608,0,1.142-0.051,1.154,0.008
	c1.342,6.355,6.486,8.107,11.719,9.906C402.322,217.629,406.962,219.12,410.256,224.6z"/>
<path fill-rule="evenodd" clip-rule="evenodd" d="M155.729,368.323c6.306,0.667,12.536,1.327,18.836,1.994
	c1.264-6.806-6.637-12.221-15.763-9.776c7.304-4.628,18.281,0.605,18.606,9.102c0.064,1.682-1.465,4.568-2.808,4.944
	c-4.072,1.141-8.402,1.664-12.65,1.781C157.605,376.488,155.258,374.04,155.729,368.323z M159.77,370.918
	c-0.091,0.697-0.182,1.395-0.273,2.092c3.307,2.819,7.031,2.096,10.805,0.938c0.064-0.476,0.129-0.951,0.193-1.427
	C166.919,371.987,163.345,371.453,159.77,370.918z"/>
<path fill-rule="evenodd" clip-rule="evenodd" d="M375.769,138.405c-6.297-5.961-7.008-13.819-1.817-19.028
	c2.236-2.243,4.489-2.902,6.85-0.434c2.844,2.975,5.996,5.803,8.158,9.233c1.872,2.97,2.315,6.633-3.092,9.229
	c-3.119-5.612-6.172-11.106-9.273-16.688C371.254,122.856,370.776,128.31,375.769,138.405z M385.999,132.629
	c2.376-4.249,0.658-7.4-5.798-10.578C382.45,126.154,384.095,129.156,385.999,132.629z"/>
<path fill-rule="evenodd" clip-rule="evenodd" d="M86.547,322.491c3.419-4.199,2.9-7.116-3.069-15.041
	c4.918,2.389,7.884,7.873,6.902,12.767c-1.137,5.669-3.605,7.141-9.006,4.921c-3.192-1.312-6.326-2.919-9.191-4.835
	c-3.754-2.509-4.171-5.711-0.352-9.738C76.676,314.491,81.462,318.37,86.547,322.491z M73.471,315.195
	c-0.62,0.764-1.24,1.528-1.86,2.292c2.884,2.08,5.769,4.159,8.654,6.239c0.46-0.601,0.921-1.201,1.382-1.801
	C78.922,319.681,76.196,317.438,73.471,315.195z"/>
<path fill-rule="evenodd" clip-rule="evenodd" d="M329.037,54.084c-6.748-3.706-12.041-6.613-17.604-9.669
	c-3.539,3.12-2.129,7.294,5.605,13.979c-6.905-1.048-11.294-9.004-8.278-15.147c0.485-0.989,1.292-2.083,2.234-2.541
	c4.027-1.955,16.253,2.581,17.951,6.775C329.523,48.91,329.037,50.769,329.037,54.084z M325.305,49.089
	c0.292-0.563,0.583-1.125,0.875-1.687c-1.867-3.968-5.605-4.337-9.526-4.355c-0.213,0.411-0.426,0.822-0.639,1.233
	C319.111,45.883,322.208,47.486,325.305,49.089z"/>
<path fill-rule="evenodd" clip-rule="evenodd" d="M389.788,241.347c4.008,17.385,2.849,24.866-4.159,23.722
	c1.101-1.504,2.006-2.798,2.969-4.048c3.25-4.218,3.552-12.861,0.106-16.855c-1.058-1.226-3.413-1.811-5.185-1.832
	c-2.737-0.035-5.483,0.667-8.227,1.057c-0.196-0.626-0.393-1.252-0.589-1.877c3.603-1.163,7.428-3.689,10.751-3.145
	c4.193,0.687,7.381,0.157,10.81-1.855c0.863-0.507,2.256-0.111,3.405-0.13c-0.739,1.121-1.247,2.854-2.266,3.241
	C394.992,240.54,392.337,240.815,389.788,241.347z"/>
<path fill-rule="evenodd" clip-rule="evenodd" d="M33.674,230.004c-0.603-1.622-1.207-3.244-2.028-5.454
	c2.6,1.28,4.82,2.374,7.004,3.449c-3.45,4.245,2.73,6.09,3.076,8.532c2.565,0.598,4.378,1.02,6.192,1.442
	c-0.558,1.347-1.116,2.693-2.082,5.022c0.095,0.14,0.945,1.399,1.796,2.659c-5.168-6.936-12.541-3.851-19.06-4.499
	c-3.423-0.341-6.771-1.428-10.153-2.178c0.019-0.589,0.038-1.178,0.056-1.766c2.219-0.785,4.437-1.57,6.656-2.356
	c-0.7,0.987-1.4,1.976-2.718,3.834c6.378,0.313,11.855,0.581,17.332,0.849c0.328-0.574,0.656-1.148,0.984-1.723
	C38.378,235.212,36.026,232.609,33.674,230.004z"/>
<path fill-rule="evenodd" clip-rule="evenodd" fill="#FFFFFF" d="M33.674,230.004c2.352,2.604,4.704,5.208,7.056,7.813
	c-0.328,0.574-0.656,1.148-0.984,1.723c-5.477-0.268-10.954-0.536-17.332-0.849c1.318-1.858,2.018-2.847,2.718-3.834
	C27.979,233.24,30.827,231.622,33.674,230.004z"/>
<path fill-rule="evenodd" clip-rule="evenodd" d="M29.927,211.846c3.958,2.082,6.88-0.209,9.975-2.208
	c1.295-0.836,2.935-1.139,4.418-1.685c0.242,0.615,0.484,1.23,0.727,1.846c-7.14,4.481-14.279,8.964-21.639,13.584
	c-1.368-3.865,1.723-4.801,3.905-6.325c1.752-1.223,4.584-1.979,2.498-5.105L29.927,211.846z"/>
<path fill-rule="evenodd" clip-rule="evenodd" d="M54.775,281.985c1.932,2.955,4.326,5.729,5.581,8.947
	c0.544,1.396-1.258,3.707-1.994,5.603c-1.518-0.619-3.275-0.938-4.505-1.919c-2.984-2.379-5.786-5.001-8.54-7.652
	c-2.011-1.938-3.486-4.127-1.35-6.599c4.096,4.81,8.2,9.628,12.825,15.059c4.03-6.423-1.965-9.353-1.913-13.527L54.775,281.985z"/>
<path fill-rule="evenodd" clip-rule="evenodd" d="M256.608,18.715c1.589-2.292,3.026-4.712,4.83-6.819
	c0.87-1.017,2.428-1.444,3.674-2.139c0.284,0.397,0.568,0.795,0.853,1.191c-1.806,6.029-3.612,12.058-5.419,18.086
	c-0.422-0.048-0.845-0.097-1.267-0.146c0.269-3.596,0.536-7.192,0.826-11.076c-1.071,0.474-2.07,0.915-3.069,1.356
	C256.894,19.018,256.751,18.867,256.608,18.715z"/>
<path fill-rule="evenodd" clip-rule="evenodd" d="M190.433,374.762c-3.211,5.297-6.221,10.736-9.768,15.799
	c-0.965,1.377-3.55,1.62-6.454,2.824c6.114-6.998,11.177-12.792,16.24-18.586L190.433,374.762z"/>
<path fill-rule="evenodd" clip-rule="evenodd" d="M300.316,30.953c4.86-2.882,9.632-5.937,14.657-8.493
	c0.942-0.479,2.896,1.031,4.499,1.67c-6.543,2.769-12.451,5.269-18.359,7.768C300.848,31.583,300.582,31.267,300.316,30.953z"/>
<path fill-rule="evenodd" clip-rule="evenodd" d="M72.155,291.626c-3.122-2.215-6.243-4.431-9.884-7.015
	c1.164-0.18,1.71-0.264,3.094-0.478c-2.568-2.964-4.862-5.61-7.156-8.257c0.286-0.266,0.572-0.531,0.858-0.797
	c4.743,5.092,9.486,10.185,14.229,15.277C72.916,290.781,72.536,291.204,72.155,291.626z"/>
<path fill-rule="evenodd" clip-rule="evenodd" d="M29.811,211.953c-4.717-3.229-9.054-13.236-7.598-18.157
	c0.332-1.122,1.813-1.904,2.765-2.842c0.104,1.219,0.61,2.576,0.245,3.633c-1.731,5.011-0.394,9.419,2.245,13.647
	c0.771,1.235,1.634,2.412,2.457,3.614C29.927,211.846,29.811,211.953,29.811,211.953z"/>
<path fill-rule="evenodd" clip-rule="evenodd" d="M14.462,133.676c-0.486-1.378-1.734-3.103-1.299-4.062
	c0.92-2.024,2.721-3.648,4.161-5.438c0.776,1.298,2.438,2.859,2.146,3.839c-0.636,2.133-2.268,3.968-3.493,5.925
	C15.472,133.853,14.967,133.764,14.462,133.676z"/>
<path fill-rule="evenodd" clip-rule="evenodd" d="M54.138,304.966c3.528,2.34,5.074,4.257,2.787,6.688
	c-0.688,0.73-2.815,0.106-4.283,0.103C53.097,309.693,53.551,307.629,54.138,304.966z"/>
<path fill-rule="evenodd" clip-rule="evenodd" d="M397.925,147.014c0.775-1.906,1.55-3.813,2.325-5.72
	c1.248,0.522,2.496,1.044,3.744,1.566c-1.016,1.854-2.03,3.709-3.046,5.563C399.94,147.954,398.933,147.484,397.925,147.014z"/>
<path fill-rule="evenodd" clip-rule="evenodd" d="M54.88,281.896c-3.226-3.503-8.004-6.29-5.487-12.861
	c1.229,0.314,2.534,0.648,3.901,0.999c-0.234,0.483-0.292,0.845-0.456,0.902c-0.85,0.3-1.727,0.522-2.594,0.771
	c0.78,1.919,1.521,3.854,2.352,5.75c0.671,1.533,1.449,3.02,2.18,4.527C54.775,281.985,54.88,281.896,54.88,281.896z"/>
<path fill-rule="evenodd" clip-rule="evenodd" d="M190.451,374.799c-0.146-2.927-0.023-5.904-0.559-8.759
	c-0.249-1.327-1.776-2.415-2.724-3.611c-0.299,0.547-0.599,1.095-1.2,2.194c0.286-1.713,0.478-2.863,0.784-4.694
	c6.879,4.089,3.598,9.835,3.664,14.804C190.433,374.762,190.451,374.799,190.451,374.799z"/>
<path fill-rule="evenodd" clip-rule="evenodd" fill="#FFFFFF" d="M360.634,86.903c-4.597,0-9.245,0.385-13.76-0.221
	c-1.476-0.197-3.25-2.826-3.662-4.624c-0.27-1.175,1.374-3.582,2.692-4.109c1.368-0.548,3.564,0.143,5.066,0.927
	c3.349,1.749,6.489,3.895,9.715,5.878C360.668,85.47,360.65,86.186,360.634,86.903z"/>
<path fill-rule="evenodd" clip-rule="evenodd" fill="#FFFFFF" d="M148.279,365.363c-5.944,0.097-9.61-1.345-9.914-5.856
	c-0.085-1.274,3.47-3.776,5.54-3.997c3.742-0.398,7.438,3.515,6.869,6.821C150.522,363.79,148.628,364.966,148.279,365.363z"/>
<path fill-rule="evenodd" clip-rule="evenodd" fill="#FFFFFF" d="M332.621,57.955c4.359-0.165,9.708,5.091,8.847,8.004
	c-0.529,1.789-2.997,3.606-4.966,4.221c-2.647,0.825-6.593-3.515-6.237-6.93C330.477,61.208,331.986,59.301,332.621,57.955z"/>
<path fill-rule="evenodd" clip-rule="evenodd" fill="#FFFFFF" d="M159.77,370.918c3.575,0.534,7.15,1.068,10.725,1.603
	c-0.064,0.476-0.129,0.951-0.193,1.427c-3.774,1.158-7.498,1.882-10.805-0.938C159.587,372.313,159.678,371.616,159.77,370.918z"/>
<path fill-rule="evenodd" clip-rule="evenodd" fill="#FFFFFF" d="M385.999,132.629c-1.904-3.474-3.549-6.476-5.798-10.578
	C386.657,125.229,388.375,128.38,385.999,132.629z"/>
<path fill-rule="evenodd" clip-rule="evenodd" fill="#FFFFFF" d="M73.471,315.195c2.725,2.243,5.451,4.486,8.176,6.73
	c-0.461,0.6-0.922,1.2-1.382,1.801c-2.885-2.08-5.77-4.159-8.654-6.239C72.231,316.723,72.851,315.958,73.471,315.195z"/>
<path fill-rule="evenodd" clip-rule="evenodd" fill="#FFFFFF" d="M325.305,49.089c-3.097-1.604-6.193-3.206-9.29-4.809
	c0.213-0.411,0.426-0.822,0.639-1.233c3.921,0.019,7.659,0.388,9.526,4.355C325.888,47.964,325.597,48.527,325.305,49.089z"/>
</svg>
