<?xml version="1.0" encoding="utf-8"?>
<!-- Generator: Adobe Illustrator 16.0.0, SVG Export Plug-In . SVG Version: 6.00 Build 0)  -->
<!DOCTYPE svg PUBLIC "-//W3C//DTD SVG 1.1//EN" "http://www.w3.org/Graphics/SVG/1.1/DTD/svg11.dtd">
<svg version="1.1" id="Layer_1" xmlns="http://www.w3.org/2000/svg" xmlns:xlink="http://www.w3.org/1999/xlink" x="0px" y="0px"
	 width="176.679px" height="120.99px" viewBox="0 0 176.679 120.99" enable-background="new 0 0 176.679 120.99"
	 xml:space="preserve">
<g>
	<path fill-rule="evenodd" clip-rule="evenodd" d="M116.548,48.188c-7.935,20.533-15.823,40.947-23.746,61.45
		c-0.157-0.289-0.156-0.521-0.161-0.753c-0.015-0.77-0.036-1.538-0.05-2.307c-0.024-1.324-0.035-2.647-0.069-3.97
		c-0.048-1.877-0.11-3.753-0.167-5.629c-0.002-0.054-0.001-0.107-0.002-0.161c-0.021-1.377-0.04-2.754-0.067-4.131
		c-0.033-1.627-0.074-3.254-0.112-4.881c-0.037-1.608-0.075-3.218-0.113-4.826c-0.039-1.627-0.078-3.253-0.118-4.88
		s-0.08-3.253-0.12-4.88c-0.04-1.591-0.08-3.182-0.119-4.772c-0.041-1.644-0.08-3.288-0.12-4.933
		c-0.039-1.608-0.077-3.218-0.118-4.826c-0.004-0.143-0.045-0.285-0.036-0.427c0.024-0.37-0.005-0.764,0.112-1.106
		c3.733-11.02,7.479-22.035,11.238-33.046c0.158-0.461,0.131-0.808-0.088-1.248c-1.523-3.061-3.01-6.141-4.51-9.213
		c-0.164-0.338-0.326-0.681-0.525-0.997c-0.164-0.259-0.158-0.482-0.037-0.752c0.588-1.306,1.154-2.621,1.742-3.927
		c1.125-2.497,2.268-4.986,3.381-7.488c0.164-0.367,0.365-0.485,0.762-0.484c8.918,0.013,17.836,0.015,26.755,0.006
		c0.397-0.001,0.597,0.119,0.763,0.486c0.951,2.104,1.932,4.195,2.9,6.292c0.037,0.079,0.061,0.164,0.09,0.244
		c-0.049,0.028-0.077,0.059-0.108,0.062c-1.96,0.195-3.386,1.276-4.536,2.776c-1.408,1.835-2.055,3.955-2.219,6.236
		c-0.191,2.676,0.316,5.246,1.277,7.729c0.269,0.695,0.691,1.333,1.058,1.989c5.76,10.318,11.513,20.642,17.287,30.951
		c5.241,9.357,10.513,18.697,15.756,28.055c0.504,0.899,1.17,1.669,1.78,2.483c0.804,1.074,1.598,2.162,2.48,3.17
		c1.727,1.971,3.951,2.968,6.559,3.128c0.141,0.009,0.281,0.028,0.454,0.046c0.955,3.744,1.908,7.481,2.88,11.289
		c-15.456,0-30.845,0-46.302,0c-0.052-3.759-0.093-7.506-0.042-11.301c0.301,0,0.527-0.004,0.756,0
		c1.188,0.022,2.362-0.071,3.507-0.413c0.762-0.228,1.479-0.549,2.083-1.078c0.979-0.859,1.365-1.946,1.198-3.229
		c-0.082-0.626-0.304-1.202-0.61-1.763c-1.648-3.016-3.294-6.034-4.902-9.072c-5.206-9.824-10.395-19.658-15.591-29.488
		C116.727,48.508,116.674,48.416,116.548,48.188z M113.39,39.775c0.111,0.057,0.223,0.113,0.334,0.17
		c0.01-0.033,0.019-0.065,0.027-0.099c-0.125-0.019-0.25-0.037-0.376-0.056c-0.062-0.097-0.101-0.223-0.187-0.285
		c-0.346-0.253-0.707-0.485-1.061-0.727c-1.919-1.31-3.832-2.629-5.758-3.927c-1.181-0.796-2.301-1.701-3.699-2.125
		c-0.396-0.119-0.773-0.297-1.16-0.448c0.082,0.201,0.206,0.322,0.341,0.429c0.687,0.541,1.333,1.146,2.071,1.604
		c1.473,0.912,2.994,1.742,4.495,2.606C110.075,37.871,111.73,38.825,113.39,39.775z M116.75,7.829
		c-0.152,0.042-0.314,0.064-0.455,0.13c-1.899,0.876-3.795,1.761-5.693,2.638c-1.347,0.622-2.703,1.225-4.046,1.856
		c-1.423,0.67-2.893,1.246-4.198,2.149c-0.556,0.384-1.143,0.722-1.715,1.081c0.13,0.052,0.23,0.034,0.326,0.003
		c0.732-0.235,1.461-0.48,2.194-0.708c0.739-0.229,1.438-0.54,2.092-0.952c0.091-0.058,0.188-0.102,0.284-0.152
		c1.834-0.968,3.671-1.933,5.503-2.905c1.626-0.864,3.251-1.732,4.87-2.608c0.289-0.156,0.553-0.36,0.828-0.542
		c0.193-0.069,0.387-0.139,0.58-0.208C117.07,7.56,116.868,7.612,116.75,7.829z M124.572,33.966c0.134,0.051,0.268,0.103,0.4,0.153
		c-0.098-0.214-0.244-0.226-0.412-0.14c-0.109-0.075-0.209-0.181-0.33-0.221c-0.967-0.323-1.938-0.63-2.904-0.95
		c-2.002-0.664-4-1.333-6.001-2c-1.628-0.542-3.253-1.09-4.884-1.623c-0.967-0.317-1.932-0.643-2.914-0.906
		c-0.86-0.231-1.742-0.382-2.615-0.568c-0.351-0.075-0.701-0.153-1.051-0.23c-0.014,0.041-0.027,0.082-0.041,0.123
		c0.337,0.148,0.67,0.307,1.011,0.445c1.305,0.531,2.541,1.239,3.937,1.539c0.227,0.049,0.449,0.117,0.674,0.181
		c1.736,0.491,3.471,0.989,5.208,1.475c1.996,0.558,3.995,1.105,5.993,1.655C121.951,33.258,123.261,33.612,124.572,33.966z
		 M96.838,46.182c-0.024,0.037-0.058,0.063-0.056,0.089c0.111,1.387,0.222,2.774,0.342,4.161c0.027,0.319,0.074,0.64,0.141,0.953
		c0.473,2.202,0.958,4.401,1.428,6.604c0.452,2.114,0.888,4.231,1.336,6.346c0.389,1.836,0.783,3.67,1.18,5.504
		c0.045,0.203,0.125,0.397,0.189,0.596c0.057-0.129,0.05-0.235,0.031-0.34c-0.328-1.883-0.666-3.764-0.988-5.647
		c-0.297-1.744-0.574-3.491-0.869-5.236c-0.295-1.743-0.596-3.485-0.902-5.228c-0.211-1.195-0.395-2.398-0.663-3.581
		c-0.313-1.376-0.706-2.734-1.067-4.099C96.927,46.259,96.875,46.225,96.838,46.182z M105.597,62.869
		c0.019-0.006,0.037-0.012,0.057-0.018c-0.021-0.084-0.037-0.17-0.063-0.252c-0.487-1.571-0.979-3.142-1.463-4.714
		c-0.664-2.152-1.323-4.307-1.981-6.461c-0.392-1.282-0.771-2.568-1.171-3.85c-0.303-0.972-0.6-1.947-0.949-2.903
		c-0.289-0.788-0.648-1.549-0.981-2.32c-0.188-0.437-0.384-0.87-0.576-1.305c-0.063,0.118-0.079,0.221-0.06,0.315
		c0.174,0.857,0.344,1.716,0.537,2.568c0.15,0.661,0.296,1.326,0.506,1.97c0.301,0.916,0.66,1.813,0.99,2.72
		c0.749,2.068,1.497,4.138,2.242,6.207c0.674,1.867,1.34,3.737,2.014,5.604C104.994,61.246,105.297,62.057,105.597,62.869z
		 M124.508,24.485c0-0.022-0.001-0.046-0.001-0.068c-1.193-0.042-2.387-0.094-3.581-0.122c-1.163-0.028-2.326-0.028-3.489-0.05
		c-0.822-0.016-1.644-0.043-2.465-0.068c-1.877-0.058-3.752-0.111-5.628-0.179c-1.562-0.058-3.099,0.23-4.651,0.305
		c-0.135,0.006-0.266,0.07-0.399,0.108c0.907,0.176,1.809,0.305,2.713,0.412c0.598,0.071,1.185,0.172,1.803,0.133
		c1.427-0.092,2.858-0.091,4.288-0.131c1.251-0.035,2.502-0.076,3.752-0.111c1.467-0.041,2.932-0.078,4.397-0.116
		c1.037-0.026,2.074-0.051,3.11-0.078C124.408,24.519,124.458,24.497,124.508,24.485z M120.367,36.389
		c0.009-0.021,0.018-0.042,0.027-0.063c-0.072-0.04-0.141-0.086-0.215-0.12c-2.206-1.019-4.412-2.036-6.619-3.055
		c-1.639-0.755-3.271-1.521-4.916-2.264c-1.121-0.506-2.215-1.076-3.436-1.332c-0.729-0.152-1.445-0.367-2.166-0.555
		c0.045,0.126,0.114,0.198,0.197,0.244c0.297,0.163,0.598,0.319,0.899,0.475c0.824,0.426,1.628,0.899,2.479,1.264
		c1.379,0.59,2.79,1.105,4.185,1.657c3.059,1.207,6.115,2.417,9.174,3.625C120.102,36.315,120.236,36.348,120.367,36.389z
		 M109.175,53.808c0.033-0.015,0.064-0.029,0.098-0.044c-0.087-0.173-0.166-0.349-0.262-0.516c-1.805-3.152-3.611-6.302-5.414-9.455
		c-0.879-1.535-1.686-3.115-2.907-4.428c-0.384-0.411-0.722-0.864-1.081-1.299c0.047,0.3,0.158,0.559,0.281,0.81
		c0.452,0.914,0.832,1.874,1.376,2.729c2.075,3.26,4.206,6.485,6.313,9.725C108.115,52.153,108.644,52.981,109.175,53.808z
		 M101.291,33.938c0.256,0.314,0.508,0.633,0.769,0.943c0.573,0.684,1.104,1.413,1.739,2.034c1.607,1.576,3.266,3.102,4.898,4.65
		c1.881,1.783,3.756,3.571,5.635,5.355c0.073,0.07,0.162,0.124,0.244,0.185c-0.92-1.082-1.895-2.101-2.861-3.126
		c-1.227-1.3-2.447-2.604-3.672-3.906c-0.673-0.716-1.385-1.4-2.015-2.152C104.684,36.317,103.059,35.053,101.291,33.938z
		 M121.97,20.983c-0.01-0.034-0.02-0.069-0.03-0.104c-1.353,0.103-2.704,0.201-4.056,0.308c-2.137,0.168-4.274,0.342-6.412,0.511
		c-2.118,0.167-4.248,0.243-6.324,0.769c-0.4,0.102-0.809,0.179-1.214,0.268c0.004,0.035,0.008,0.071,0.012,0.106
		c0.114,0.015,0.228,0.037,0.342,0.042c0.606,0.022,1.213,0.043,1.819,0.06c0.5,0.013,1.007,0.076,1.5,0.02
		c1.383-0.158,2.762-0.367,4.143-0.556c3.026-0.415,6.055-0.828,9.081-1.244C121.211,21.109,121.591,21.044,121.97,20.983z
		 M99.98,14.269c0.267-0.173,0.536-0.339,0.798-0.518c0.897-0.611,1.878-1.104,2.625-1.93c0.405-0.449,0.876-0.84,1.317-1.257
		c1.375-1.303,2.75-2.605,4.125-3.907c0.986-0.934,1.978-1.862,2.963-2.798c0.279-0.265,0.545-0.544,0.816-0.817
		c-0.524,0.333-0.99,0.722-1.455,1.11c-2.547,2.133-5.082,4.281-7.648,6.392C102.19,11.639,101.022,12.883,99.98,14.269z
		 M104.102,25.814c-0.015,0.062-0.028,0.124-0.042,0.186c1.014,0.328,2.02,0.681,3.043,0.973c0.582,0.166,1.191,0.227,1.788,0.343
		c2.909,0.566,5.819,1.135,8.729,1.702c0.134,0.025,0.271,0.038,0.405,0.057c-1.379-0.459-2.771-0.848-4.168-1.226
		c-2.139-0.58-4.283-1.138-6.416-1.736C106.336,25.802,105.212,25.941,104.102,25.814z M114.78,12.352
		c-0.013-0.037-0.026-0.073-0.038-0.109c-0.18,0.064-0.359,0.131-0.54,0.193c-2.785,0.972-5.572,1.936-8.354,2.917
		c-0.892,0.314-1.81,0.562-2.633,1.056c-0.475,0.284-0.972,0.53-1.456,0.799c-0.074,0.041-0.135,0.107-0.201,0.163
		c1.459-0.179,2.863-0.445,4.196-1.058c2.144-0.984,4.319-1.898,6.48-2.843C113.083,13.099,113.931,12.725,114.78,12.352z
		 M98.579,13.13c0.655-0.63,1.313-1.256,1.962-1.895c0.137-0.136,0.236-0.313,0.344-0.478c0.699-1.06,1.394-2.122,2.092-3.182
		c1.279-1.94,2.561-3.88,3.84-5.821c0.052-0.08,0.083-0.173,0.178-0.371c-0.148,0.111-0.199,0.134-0.229,0.172
		c-0.686,0.893-1.367,1.788-2.053,2.682c-1.186,1.545-2.348,3.11-3.568,4.628C100.097,10.167,99.231,11.569,98.579,13.13z
		 M116.265,15.975c-0.014-0.027-0.026-0.054-0.04-0.081c-1.067,0.206-2.136,0.412-3.204,0.616c-2.176,0.416-4.347,0.858-6.529,1.235
		c-1.352,0.233-2.611,0.729-3.887,1.189c-0.049,0.018-0.093,0.045-0.14,0.068c0.155,0.093,0.272,0.114,0.387,0.108
		c0.749-0.036,1.499-0.075,2.247-0.12c0.141-0.009,0.282-0.042,0.42-0.079c3.399-0.913,6.799-1.827,10.198-2.744
		C115.904,16.117,116.083,16.039,116.265,15.975z M100.436,35.837c-0.032,0.028-0.063,0.057-0.096,0.085
		c0.146,0.263,0.287,0.529,0.441,0.788c0.356,0.597,0.665,1.232,1.093,1.773c0.585,0.741,1.264,1.407,1.9,2.107
		c1.766,1.942,3.529,3.887,5.296,5.828c0.056,0.061,0.138,0.097,0.208,0.145c-0.89-1.255-1.821-2.451-2.756-3.645
		c-1.213-1.546-2.446-3.075-3.633-4.64C102.18,37.344,101.225,36.681,100.436,35.837z M103.804,20.944
		c0.011,0.038,0.021,0.076,0.031,0.114c0.751,0,1.501,0.004,2.251-0.002c0.231-0.001,0.469,0.003,0.692-0.046
		c0.944-0.202,1.885-0.427,2.827-0.637c2.532-0.566,5.064-1.128,7.597-1.695c0.096-0.021,0.187-0.073,0.28-0.11
		c-0.599,0.009-1.177,0.095-1.757,0.179c-1.503,0.217-3.006,0.431-4.509,0.651c-1.327,0.195-2.649,0.418-3.979,0.593
		C106.042,20.147,104.941,20.601,103.804,20.944z M102.177,30.492c0.381,0.345,0.753,0.701,1.148,1.03
		c0.271,0.225,0.553,0.454,0.867,0.607c2.344,1.14,4.696,2.262,7.047,3.388c0.115,0.055,0.24,0.09,0.359,0.135
		c-0.03-0.103-0.085-0.146-0.145-0.183c-2.17-1.313-4.352-2.604-6.502-3.944C104.103,30.995,103.16,30.755,102.177,30.492z
		 M113.958,5.55c-0.02-0.029-0.04-0.06-0.06-0.089c-0.147,0.086-0.297,0.166-0.439,0.259c-1.532,0.988-3.06,1.982-4.595,2.967
		c-1.174,0.753-2.358,1.492-3.271,2.577c-0.07,0.084-0.135,0.173-0.203,0.259c0.443-0.1,0.838-0.257,1.234-0.406
		c0.508-0.19,0.957-0.469,1.379-0.81c1.613-1.302,3.238-2.589,4.858-3.882C113.228,6.133,113.593,5.842,113.958,5.55z
		 M113.054,42.308c0.023-0.021,0.048-0.042,0.072-0.063c-0.043-0.05-0.078-0.107-0.128-0.147c-1.61-1.3-3.212-2.611-4.843-3.886
		c-0.451-0.353-0.98-0.609-1.541-0.782c0.525,0.712,1.096,1.354,1.859,1.817c0.731,0.443,1.424,0.952,2.135,1.43
		C111.423,41.222,112.24,41.765,113.054,42.308z"/>
	<path fill-rule="evenodd" clip-rule="evenodd" d="M83.947,109.815C76.027,89.323,68.108,68.83,60.142,48.213
		c-0.14,0.233-0.231,0.371-0.308,0.516c-2.171,4.118-4.332,8.241-6.514,12.353c-4.372,8.24-8.754,16.476-13.135,24.711
		c-0.26,0.489-0.527,0.978-0.816,1.451c-0.384,0.629-0.568,1.316-0.601,2.039c-0.063,1.415,0.56,2.484,1.733,3.243
		c0.811,0.524,1.715,0.826,2.663,0.947c0.814,0.104,1.64,0.119,2.461,0.167c0.21,0.013,0.423,0.002,0.624,0.002
		c0.156,0.548,0.149,10.431-0.002,11.309c-15.386,0-30.776,0-46.248,0c0.97-3.806,1.922-7.541,2.882-11.306
		c0.192-0.015,0.369-0.029,0.544-0.041c2.801-0.185,5.087-1.385,6.856-3.544c0.884-1.08,1.659-2.249,2.549-3.323
		c1.097-1.324,1.852-2.85,2.684-4.328c5.933-10.55,11.854-21.106,17.765-31.668c4.915-8.78,9.812-17.57,14.715-26.356
		c0.494-0.886,0.74-1.861,0.991-2.831c0.627-2.425,0.816-4.871,0.278-7.34c-0.444-2.039-1.312-3.861-2.827-5.331
		c-1.003-0.973-2.162-1.646-3.586-1.774c-0.051-0.005-0.1-0.03-0.181-0.057c0.046-0.121,0.081-0.235,0.13-0.343
		c0.952-2.064,1.917-4.122,2.849-6.196c0.176-0.393,0.387-0.506,0.806-0.506c8.9,0.012,17.8,0.01,26.701-0.006
		c0.427-0.001,0.626,0.133,0.797,0.517c1.646,3.696,3.304,7.387,4.98,11.068c0.219,0.482,0.201,0.852-0.044,1.337
		c-1.3,2.572-2.544,5.173-3.811,7.762c-0.401,0.82-0.797,1.644-1.226,2.449c-0.133,0.251-0.127,0.45-0.041,0.705
		c3.237,9.486,6.468,18.974,9.698,28.462c0.52,1.525,1.016,3.059,1.552,4.577c0.162,0.458,0.164,0.91,0.146,1.375
		c-0.01,0.284-0.051,0.568-0.056,0.854c-0.022,1.449-0.03,2.899-0.057,4.349c-0.032,1.787-0.079,3.575-0.119,5.362
		c-0.041,1.823-0.081,3.646-0.12,5.47c-0.019,0.877-0.031,1.753-0.049,2.63c-0.039,1.823-0.078,3.646-0.117,5.47
		c-0.039,1.787-0.078,3.575-0.118,5.362c-0.041,1.842-0.083,3.683-0.124,5.523c-0.041,1.806-0.083,3.611-0.122,5.416
		c-0.019,0.877-0.031,1.753-0.05,2.63c-0.038,1.823-0.073,3.646-0.119,5.47c-0.025,0.999-0.071,1.997-0.107,2.996
		C84.016,109.794,83.981,109.805,83.947,109.815z M60.145,7.81c-0.174-0.138-0.339-0.297-0.61-0.177
		c0.208,0.054,0.416,0.108,0.624,0.162c0.07,0.085,0.124,0.199,0.213,0.249c0.421,0.234,0.855,0.446,1.28,0.675
		c1.479,0.796,2.952,1.601,4.433,2.391c1.922,1.026,3.853,2.038,5.773,3.067c0.521,0.278,1.037,0.554,1.611,0.717
		c0.497,0.142,0.979,0.336,1.471,0.497c0.397,0.13,0.799,0.245,1.199,0.366c-0.285-0.3-0.609-0.512-0.942-0.71
		c-0.875-0.52-1.74-1.058-2.636-1.539c-0.676-0.364-1.393-0.648-2.09-0.974c-1.602-0.747-3.201-1.502-4.805-2.246
		c-1.296-0.601-2.597-1.193-3.898-1.782C61.232,8.264,60.688,8.04,60.145,7.81z M79.593,45.462
		c-0.036-0.008-0.071-0.016-0.107-0.023c-0.02,0.062-0.043,0.123-0.06,0.187c-0.252,0.948-0.507,1.896-0.755,2.846
		c-0.167,0.639-0.365,1.272-0.479,1.921c-0.485,2.741-0.943,5.487-1.413,8.23c-0.555,3.238-1.112,6.476-1.666,9.714
		c-0.063,0.367-0.106,0.738-0.159,1.107c0.035,0.006,0.071,0.011,0.106,0.016c0.074-0.363,0.143-0.728,0.221-1.09
		c0.474-2.199,0.951-4.398,1.425-6.599c0.621-2.879,1.245-5.757,1.857-8.639c0.233-1.1,0.474-2.2,0.645-3.311
		c0.132-0.86,0.162-1.738,0.236-2.608C79.494,46.63,79.543,46.046,79.593,45.462z M78.263,40.875
		c-0.028-0.005-0.056-0.01-0.084-0.015c-0.033,0.04-0.079,0.074-0.098,0.119c-0.505,1.184-1.046,2.354-1.498,3.558
		c-0.395,1.052-0.692,2.141-1.024,3.215c-0.793,2.564-1.579,5.13-2.373,7.694c-0.667,2.153-1.342,4.304-2.01,6.457
		c-0.035,0.11-0.045,0.229-0.067,0.345c0.541-1.259,1.014-2.532,1.477-3.81c1.353-3.734,2.705-7.469,4.046-11.207
		c0.313-0.873,0.599-1.757,0.863-2.646c0.147-0.495,0.227-1.01,0.33-1.518C77.974,42.338,78.117,41.605,78.263,40.875z
		 M51.982,32.945c0.012,0.037,0.024,0.074,0.037,0.11c0.818-0.237,1.634-0.484,2.455-0.712c2.668-0.737,5.341-1.463,8.009-2.203
		c2.1-0.582,4.197-1.179,6.294-1.77c0.223-0.063,0.453-0.112,0.664-0.203c1.166-0.502,2.327-1.015,3.488-1.524
		c0.093-0.041,0.18-0.096,0.27-0.144c-0.116-0.059-0.215-0.058-0.31-0.037c-0.611,0.129-1.224,0.248-1.83,0.396
		c-1.005,0.246-2.011,0.49-3.004,0.777c-0.79,0.228-1.56,0.52-2.34,0.777c-2.681,0.888-5.362,1.772-8.044,2.657
		c-1.375,0.453-2.751,0.901-4.127,1.354C53.022,32.596,52.502,32.771,51.982,32.945z M72.693,23.396c0-0.028,0-0.058,0.001-0.087
		c-0.297-0.032-0.594-0.07-0.892-0.098c-1.511-0.14-3.02-0.33-4.543-0.268c-1.035,0.043-2.07,0.092-3.105,0.119
		c-2.341,0.062-4.682,0.112-7.023,0.164c-1.25,0.027-2.501,0.045-3.752,0.074c-0.317,0.008-0.634,0.049-0.951,0.073
		c1.454,0.122,2.899,0.174,4.344,0.221c1.303,0.043,2.607,0.081,3.911,0.12c1.375,0.04,2.75,0.085,4.125,0.116
		c1.073,0.024,2.146,0.029,3.22,0.047c0.283,0.004,0.569,0.056,0.849,0.031c0.498-0.042,0.992-0.125,1.487-0.192
		C71.14,23.611,71.917,23.504,72.693,23.396z M73.969,28c-0.013-0.021-0.025-0.044-0.038-0.065
		c-0.774,0.206-1.549,0.407-2.322,0.619c-0.481,0.132-0.983,0.223-1.434,0.427c-1.986,0.896-3.955,1.833-5.934,2.743
		c-2.078,0.956-4.163,1.898-6.243,2.851c-0.47,0.215-0.932,0.446-1.397,0.67c0.152,0.041,0.271,0.012,0.383-0.033
		c1.996-0.783,3.992-1.57,5.988-2.354c1.896-0.744,3.794-1.48,5.688-2.229c0.763-0.303,1.534-0.595,2.27-0.955
		c0.994-0.486,1.958-1.033,2.933-1.558C73.906,28.092,73.934,28.039,73.969,28z M57.714,10.856
		c-0.009,0.021-0.017,0.041-0.026,0.062c0.068,0.039,0.132,0.088,0.204,0.115c3.591,1.361,7.18,2.73,10.777,4.073
		c1.453,0.543,2.857,1.23,4.414,1.471c0.688,0.106,1.366,0.267,2.05,0.397c0.079,0.016,0.163,0.002,0.266,0.002
		c-0.036-0.064-0.045-0.107-0.069-0.118c-0.957-0.442-1.894-0.939-2.878-1.307c-1.371-0.512-2.774-0.938-4.17-1.38
		c-2.827-0.897-5.659-1.781-8.489-2.669C59.101,11.285,58.408,11.071,57.714,10.856z M75.714,33.324
		c-0.022-0.028-0.044-0.058-0.065-0.086c-0.525,0.393-1.054,0.779-1.574,1.179c-0.51,0.391-1.062,0.745-1.507,1.201
		c-1.323,1.355-2.601,2.756-3.9,4.135c-1.753,1.861-3.509,3.72-5.263,5.579c-0.237,0.252-0.467,0.509-0.701,0.763
		c0.175-0.012,0.288-0.087,0.385-0.179c1.416-1.34,2.83-2.681,4.243-4.023c0.804-0.764,1.601-1.534,2.406-2.297
		c1.194-1.132,2.434-2.218,3.576-3.4C74.178,35.301,74.918,34.286,75.714,33.324z M73.023,21.777
		c0.001-0.046,0.003-0.091,0.004-0.137c-1.225-0.232-2.445-0.501-3.678-0.687c-0.863-0.13-1.743-0.146-2.615-0.215
		c-1.637-0.131-3.274-0.264-4.912-0.396c-1.619-0.131-3.238-0.264-4.857-0.39c-0.63-0.05-1.261-0.083-1.891-0.124
		c0.187,0.13,0.386,0.184,0.588,0.211c0.743,0.1,1.488,0.187,2.231,0.287c3.273,0.444,6.546,0.893,9.82,1.339
		c0.636,0.086,1.272,0.23,1.91,0.24c1.033,0.017,2.068-0.055,3.103-0.091C72.826,21.813,72.924,21.791,73.023,21.777z
		 M67.448,53.657c0.037,0.023,0.074,0.047,0.11,0.069c0.462-0.72,0.919-1.442,1.386-2.158c1.906-2.923,3.817-5.841,5.72-8.765
		c0.36-0.554,0.719-1.113,1.025-1.697c0.465-0.887,0.885-1.797,1.32-2.699c0.035-0.072,0.048-0.155,0.071-0.232
		c-0.35,0.304-0.638,0.641-0.916,0.985c-0.517,0.64-1.089,1.245-1.528,1.935c-0.701,1.1-1.314,2.256-1.961,3.39
		c-1.524,2.673-3.047,5.347-4.57,8.02C67.886,52.889,67.667,53.273,67.448,53.657z M64.803,2.08
		c-0.043,0.048-0.087,0.096-0.131,0.143c0.123,0.075,0.262,0.132,0.365,0.229c1.044,0.977,2.086,1.956,3.121,2.941
		c1.798,1.713,3.59,3.432,5.389,5.145c0.413,0.394,0.809,0.817,1.27,1.147c0.784,0.562,1.612,1.061,2.424,1.583
		c0.055,0.035,0.126,0.047,0.262,0.095c-1.28-1.569-2.64-2.922-4.15-4.136c-1.573-1.264-3.101-2.584-4.648-3.88
		C67.403,4.258,66.103,3.169,64.803,2.08z M74.596,31.905c-0.276,0.114-0.547,0.245-0.83,0.34c-1.11,0.369-2.123,0.916-3.086,1.58
		c-2.444,1.686-4.908,3.342-7.362,5.012c-0.225,0.152-0.436,0.324-0.653,0.487c0.143,0.033,0.239-0.003,0.326-0.054
		c1.007-0.579,2.012-1.164,3.02-1.743c1.721-0.988,3.434-1.99,5.168-2.955C72.452,33.863,73.562,32.947,74.596,31.905z
		 M77.038,14.57c-0.238-0.27-0.371-0.45-0.534-0.6c-0.554-0.505-1.075-1.063-1.688-1.485c-1.354-0.932-2.756-1.793-4.139-2.684
		c-1.607-1.036-3.214-2.074-4.821-3.111c-0.184-0.119-0.368-0.238-0.552-0.357c0.014,0.126,0.071,0.187,0.136,0.237
		c0.564,0.439,1.125,0.882,1.695,1.313c1.954,1.478,3.909,2.952,5.866,4.425c0.754,0.567,1.479,1.179,2.381,1.524
		C75.908,14.033,76.413,14.289,77.038,14.57z M74.71,18.399c0.006-0.043,0.012-0.086,0.019-0.129
		c-0.821-0.298-1.643-0.598-2.465-0.894c-0.117-0.042-0.239-0.072-0.362-0.096c-3.104-0.6-6.208-1.198-9.312-1.794
		c-0.542-0.104-1.087-0.197-1.63-0.296c0.784,0.319,1.586,0.551,2.393,0.77c2.242,0.606,4.482,1.222,6.731,1.803
		c0.81,0.209,1.595,0.537,2.448,0.564c0.571,0.02,1.143,0.049,1.714,0.07C74.4,18.405,74.556,18.399,74.71,18.399z M58.426,28.079
		c0.006,0.018,0.011,0.035,0.017,0.053c0.088,0,0.178,0.015,0.263-0.002c0.963-0.185,1.925-0.378,2.889-0.563
		c2.209-0.423,4.419-0.838,6.628-1.266c0.578-0.111,1.159-0.225,1.72-0.398c0.682-0.211,1.344-0.484,2.012-0.737
		c0.095-0.035,0.176-0.109,0.263-0.165c-0.675-0.041-1.318-0.033-1.958,0.021c-0.477,0.04-0.953,0.119-1.42,0.222
		c-0.54,0.118-1.07,0.282-1.604,0.427c-2.776,0.748-5.553,1.495-8.329,2.245C58.744,27.96,58.586,28.024,58.426,28.079z
		 M67.174,46.12c0.025,0.024,0.05,0.05,0.075,0.074c0.515-0.563,1.03-1.127,1.544-1.69c1.554-1.703,3.114-3.402,4.66-5.113
		c0.74-0.82,1.543-1.592,2.027-2.616c0.216-0.459,0.495-0.888,0.745-1.331c-0.032-0.024-0.064-0.049-0.096-0.073
		c-0.707,0.669-1.464,1.293-2.109,2.017c-0.749,0.839-1.397,1.767-2.092,2.653c-0.86,1.097-1.725,2.19-2.584,3.288
		C68.618,44.257,67.897,45.189,67.174,46.12z M59.464,17.416c-0.012,0.035-0.023,0.071-0.035,0.106
		c0.169,0.042,0.338,0.086,0.507,0.124c2.948,0.663,5.896,1.326,8.844,1.987c0.558,0.126,1.112,0.313,1.677,0.352
		c0.854,0.06,1.715,0.016,2.574,0.012c0.043,0,0.087-0.033,0.143-0.056c-0.594-0.315-2.642-0.898-3.434-1.011
		c-2.192-0.312-4.382-0.635-6.573-0.957C61.932,17.791,60.698,17.602,59.464,17.416z M78.018,11.967
		c-0.136-0.327-0.257-0.661-0.411-0.979c-0.23-0.48-0.437-0.981-0.734-1.419c-1.278-1.872-2.586-3.725-3.884-5.584
		C72.74,3.627,72.49,3.271,72.24,2.913c-0.037,0.134-0.002,0.227,0.045,0.312c1.083,1.93,2.2,3.842,3.24,5.796
		C76.146,10.188,76.931,11.189,78.018,11.967z M74.002,30.047c-0.714,0.268-1.483,0.44-2.134,0.818
		c-2.348,1.362-4.657,2.794-6.979,4.202c-0.093,0.056-0.175,0.129-0.262,0.193c0.134,0.022,0.23-0.013,0.322-0.057
		c2.013-0.966,4.01-1.968,6.043-2.888C72.167,31.785,73.191,31.088,74.002,30.047z M70.768,53.881
		c0.028,0.018,0.057,0.035,0.085,0.053c0.044-0.075,0.094-0.147,0.133-0.226c1.032-2.084,2.065-4.169,3.093-6.256
		c0.188-0.383,0.383-0.769,0.519-1.172c0.153-0.456,0.247-0.933,0.358-1.402c0.024-0.104,0.016-0.216,0.022-0.324
		c-0.497,0.69-0.947,1.384-1.274,2.131c-0.638,1.459-1.207,2.948-1.805,4.425C71.523,52.034,71.145,52.957,70.768,53.881z
		 M62.363,25.354c-0.003-0.049-0.007-0.098-0.01-0.146c-0.691-0.043-1.391-0.182-2.07-0.111c-1.847,0.193-3.685,0.475-5.526,0.723
		c-0.349,0.047-0.696,0.104-1.044,0.156c0.556,0.023,1.102,0.041,1.646,0.02c1.643-0.064,3.285-0.147,4.927-0.218
		C61.006,25.748,61.665,25.471,62.363,25.354z"/>
	<path fill-rule="evenodd" clip-rule="evenodd" d="M88.233,24.324c0.642,0.632,0.867,1.351,1.085,2.098
		c0.275,0.951,0.194,1.919,0.242,2.879c0.064,1.304,0.053,2.611,0.074,3.917c0.042,2.415,0.08,4.83,0.129,7.245
		c0.027,1.431,0.079,2.86,0.107,4.291c0.045,2.361,0.071,4.724,0.123,7.085c0.047,2.092,0.121,4.184,0.176,6.275
		c0.028,1.091,0.033,2.182,0.061,3.272c0.051,2.109,0.111,4.218,0.168,6.327c0.002,0.054,0.004,0.106,0.005,0.16
		c0.021,1.95,0.024,3.9,0.064,5.851c0.036,1.769,0.114,3.537,0.169,5.306c0.011,0.34,0,0.68,0.003,1.021
		c0.019,1.86,0.03,3.721,0.062,5.581c0.025,1.412,0.082,2.823,0.115,4.234c0.027,1.162,0.035,2.324,0.063,3.487
		c0.049,2.055,0.119,4.11,0.157,6.166c0.039,2.129,0.034,4.259,0.079,6.388c0.033,1.661,0.122,3.322,0.168,4.983
		c0.023,0.823,0.01,1.647,0.001,2.472c-0.001,0.139-0.043,0.283-0.095,0.414c-0.93,2.346-1.863,4.69-2.799,7.035
		c-0.018,0.047-0.053,0.087-0.111,0.179c-0.066-0.107-0.129-0.182-0.164-0.269c-0.822-2.061-1.65-4.12-2.454-6.188
		c-0.126-0.324-0.196-0.693-0.192-1.04c0.017-1.807,0.064-3.613,0.104-5.419c0.035-1.574,0.08-3.147,0.111-4.721
		c0.043-2.182,0.078-4.363,0.119-6.545c0.037-1.984,0.068-3.97,0.119-5.953c0.049-1.857,0.133-3.715,0.176-5.572
		c0.025-1.146-0.008-2.292,0.009-3.438c0.027-1.877,0.071-3.755,0.113-5.632c0.033-1.465,0.082-2.931,0.111-4.396
		c0.046-2.289,0.078-4.578,0.122-6.867c0.035-1.859,0.07-3.719,0.119-5.578c0.051-1.966,0.131-3.931,0.174-5.897
		c0.038-1.663,0.029-3.328,0.064-4.992c0.045-2.128,0.113-4.255,0.172-6.383c0.002-0.054,0.001-0.107,0.002-0.161
		c0.021-1.771,0.032-3.543,0.064-5.314c0.051-2.826,0.113-5.652,0.174-8.478c0.021-0.971,0.158-1.925,0.504-2.835
		C87.851,24.984,88.046,24.684,88.233,24.324z"/>
	<path fill-rule="evenodd" clip-rule="evenodd" fill="#FFFFFF" d="M96.838,46.182c0.036,0.043,0.089,0.077,0.101,0.122
		c0.361,1.364,0.754,2.723,1.067,4.099c0.269,1.183,0.452,2.386,0.663,3.581c0.307,1.742,0.607,3.484,0.902,5.228
		c0.295,1.745,0.572,3.492,0.869,5.236c0.322,1.884,0.66,3.765,0.988,5.647c0.019,0.104,0.025,0.211-0.031,0.34
		c-0.064-0.198-0.145-0.393-0.189-0.596c-0.396-1.834-0.791-3.668-1.18-5.504c-0.448-2.114-0.884-4.231-1.336-6.346
		c-0.47-2.203-0.955-4.402-1.428-6.604c-0.066-0.313-0.113-0.634-0.141-0.953c-0.12-1.387-0.23-2.774-0.342-4.161
		C96.781,46.245,96.814,46.219,96.838,46.182z"/>
	<path fill-rule="evenodd" clip-rule="evenodd" fill="#FFFFFF" d="M105.597,62.869c-0.3-0.813-0.604-1.623-0.898-2.438
		c-0.674-1.867-1.34-3.737-2.014-5.604c-0.745-2.069-1.493-4.139-2.242-6.207c-0.33-0.907-0.689-1.804-0.99-2.72
		c-0.21-0.644-0.355-1.309-0.506-1.97c-0.193-0.853-0.363-1.711-0.537-2.568c-0.02-0.095-0.003-0.197,0.06-0.315
		c0.192,0.435,0.388,0.868,0.576,1.305c0.333,0.771,0.692,1.532,0.981,2.32c0.35,0.956,0.646,1.932,0.949,2.903
		c0.399,1.281,0.779,2.567,1.171,3.85c0.658,2.154,1.317,4.309,1.981,6.461c0.484,1.572,0.976,3.143,1.463,4.714
		c0.025,0.082,0.041,0.168,0.063,0.252C105.634,62.857,105.616,62.863,105.597,62.869z"/>
	<path fill-rule="evenodd" clip-rule="evenodd" fill="#FFFFFF" d="M124.57,33.969c-1.309-0.356-2.619-0.711-3.928-1.07
		c-1.998-0.55-3.997-1.098-5.993-1.655c-1.737-0.485-3.472-0.983-5.208-1.475c-0.225-0.063-0.447-0.132-0.674-0.181
		c-1.396-0.3-2.632-1.008-3.937-1.539c-0.341-0.139-0.674-0.297-1.011-0.445c0.014-0.041,0.027-0.082,0.041-0.123
		c0.35,0.077,0.7,0.155,1.051,0.23c0.873,0.187,1.755,0.337,2.615,0.568c0.982,0.264,1.947,0.589,2.914,0.906
		c1.631,0.533,3.256,1.081,4.884,1.623c2.001,0.667,3.999,1.336,6.001,2c0.967,0.32,1.938,0.627,2.904,0.95
		c0.121,0.04,0.221,0.146,0.33,0.221L124.57,33.969z"/>
	<path fill-rule="evenodd" clip-rule="evenodd" fill="#FFFFFF" d="M124.508,24.485c-0.05,0.012-0.101,0.033-0.151,0.034
		c-1.036,0.027-2.073,0.052-3.11,0.078c-1.466,0.038-2.931,0.075-4.397,0.116c-1.25,0.035-2.501,0.076-3.752,0.111
		c-1.43,0.04-2.861,0.039-4.288,0.131c-0.618,0.039-1.205-0.062-1.803-0.133c-0.904-0.107-1.806-0.236-2.713-0.412
		c0.134-0.038,0.265-0.103,0.399-0.108c1.553-0.074,3.09-0.362,4.651-0.305c1.876,0.067,3.751,0.121,5.628,0.179
		c0.821,0.025,1.643,0.053,2.465,0.068c1.163,0.021,2.326,0.021,3.489,0.05c1.194,0.028,2.388,0.08,3.581,0.122
		C124.507,24.439,124.508,24.463,124.508,24.485z"/>
	<path fill-rule="evenodd" clip-rule="evenodd" fill="#FFFFFF" d="M120.367,36.389c-0.131-0.041-0.265-0.073-0.391-0.123
		c-3.059-1.208-6.115-2.418-9.174-3.625c-1.395-0.552-2.806-1.067-4.185-1.657c-0.851-0.364-1.654-0.838-2.479-1.264
		c-0.302-0.155-0.603-0.312-0.899-0.475c-0.083-0.046-0.152-0.118-0.197-0.244c0.721,0.188,1.438,0.402,2.166,0.555
		c1.221,0.256,2.314,0.826,3.436,1.332c1.645,0.742,3.277,1.509,4.916,2.264c2.207,1.019,4.413,2.036,6.619,3.055
		c0.074,0.034,0.143,0.08,0.215,0.12C120.384,36.347,120.375,36.368,120.367,36.389z"/>
	<path fill-rule="evenodd" clip-rule="evenodd" fill="#FFFFFF" d="M109.175,53.808c-0.531-0.826-1.061-1.654-1.596-2.478
		c-2.107-3.239-4.238-6.465-6.313-9.725c-0.544-0.855-0.924-1.815-1.376-2.729c-0.123-0.251-0.234-0.51-0.281-0.81
		c0.359,0.435,0.697,0.888,1.081,1.299c1.222,1.313,2.028,2.893,2.907,4.428c1.803,3.153,3.609,6.303,5.414,9.455
		c0.096,0.167,0.175,0.343,0.262,0.516C109.24,53.778,109.208,53.793,109.175,53.808z"/>
	<path fill-rule="evenodd" clip-rule="evenodd" fill="#FFFFFF" d="M101.291,33.938c1.769,1.115,3.394,2.38,4.737,3.983
		c0.63,0.752,1.342,1.437,2.015,2.152c1.225,1.302,2.445,2.606,3.672,3.906c0.967,1.025,1.941,2.044,2.861,3.126
		c-0.082-0.061-0.171-0.114-0.244-0.185c-1.879-1.784-3.754-3.572-5.635-5.355c-1.633-1.549-3.291-3.074-4.898-4.65
		c-0.635-0.621-1.166-1.351-1.739-2.034C101.798,34.57,101.546,34.252,101.291,33.938z"/>
	<path fill-rule="evenodd" clip-rule="evenodd" fill="#FFFFFF" d="M116.74,7.817c-0.275,0.183-0.539,0.387-0.828,0.543
		c-1.619,0.876-3.244,1.744-4.87,2.608c-1.832,0.973-3.669,1.938-5.503,2.905c-0.096,0.051-0.193,0.095-0.284,0.152
		c-0.654,0.412-1.353,0.723-2.092,0.952c-0.733,0.228-1.462,0.473-2.194,0.708c-0.096,0.031-0.196,0.049-0.326-0.003
		c0.572-0.359,1.159-0.697,1.715-1.081c1.306-0.903,2.775-1.479,4.198-2.149c1.343-0.632,2.699-1.234,4.046-1.856
		c1.898-0.877,3.794-1.762,5.693-2.638c0.141-0.065,0.303-0.088,0.455-0.13L116.74,7.817z"/>
	<path fill-rule="evenodd" clip-rule="evenodd" fill="#FFFFFF" d="M121.97,20.983c-0.379,0.061-0.759,0.126-1.14,0.179
		c-3.026,0.416-6.055,0.829-9.081,1.244c-1.381,0.188-2.76,0.397-4.143,0.556c-0.493,0.057-1-0.007-1.5-0.02
		c-0.606-0.017-1.213-0.037-1.819-0.06c-0.114-0.005-0.228-0.027-0.342-0.042c-0.004-0.035-0.008-0.071-0.012-0.106
		c0.405-0.089,0.813-0.166,1.214-0.268c2.076-0.525,4.206-0.602,6.324-0.769c2.138-0.169,4.275-0.343,6.412-0.511
		c1.352-0.106,2.703-0.205,4.056-0.308C121.951,20.914,121.96,20.949,121.97,20.983z"/>
	<path fill-rule="evenodd" clip-rule="evenodd" fill="#FFFFFF" d="M99.98,14.269c1.042-1.386,2.21-2.63,3.541-3.725
		c2.566-2.11,5.102-4.259,7.648-6.392c0.465-0.389,0.931-0.777,1.455-1.11c-0.271,0.273-0.537,0.553-0.816,0.817
		c-0.985,0.936-1.977,1.864-2.963,2.798c-1.375,1.302-2.75,2.604-4.125,3.907c-0.441,0.417-0.912,0.808-1.317,1.257
		c-0.747,0.826-1.728,1.318-2.625,1.93C100.516,13.93,100.247,14.096,99.98,14.269z"/>
	<path fill-rule="evenodd" clip-rule="evenodd" fill="#FFFFFF" d="M104.102,25.814c1.11,0.127,2.234-0.013,3.339,0.298
		c2.133,0.599,4.277,1.156,6.416,1.736c1.396,0.378,2.789,0.767,4.168,1.226c-0.135-0.019-0.271-0.031-0.405-0.057
		c-2.909-0.567-5.819-1.136-8.729-1.702c-0.597-0.116-1.206-0.177-1.788-0.343c-1.023-0.292-2.029-0.645-3.043-0.973
		C104.074,25.938,104.087,25.876,104.102,25.814z"/>
	<path fill-rule="evenodd" clip-rule="evenodd" fill="#FFFFFF" d="M114.78,12.352c-0.849,0.373-1.696,0.747-2.545,1.118
		c-2.161,0.944-4.337,1.858-6.48,2.843c-1.333,0.612-2.737,0.879-4.196,1.058c0.066-0.056,0.127-0.122,0.201-0.163
		c0.484-0.269,0.981-0.515,1.456-0.799c0.823-0.494,1.741-0.741,2.633-1.056c2.781-0.981,5.568-1.945,8.354-2.917
		c0.181-0.063,0.36-0.129,0.54-0.193C114.753,12.278,114.767,12.314,114.78,12.352z"/>
	<path fill-rule="evenodd" clip-rule="evenodd" fill="#FFFFFF" d="M113.386,39.778c-1.656-0.953-3.312-1.907-4.968-2.86
		c-1.501-0.864-3.022-1.694-4.495-2.606c-0.738-0.458-1.385-1.063-2.071-1.604c-0.135-0.106-0.259-0.228-0.341-0.429
		c0.387,0.151,0.765,0.329,1.16,0.448c1.398,0.424,2.519,1.329,3.699,2.125c1.926,1.298,3.839,2.617,5.758,3.927
		c0.354,0.241,0.715,0.474,1.061,0.727c0.086,0.063,0.125,0.188,0.187,0.285L113.386,39.778z"/>
	<path fill-rule="evenodd" clip-rule="evenodd" fill="#FFFFFF" d="M98.579,13.13c0.652-1.561,1.519-2.963,2.565-4.265
		c1.221-1.518,2.383-3.083,3.568-4.628c0.686-0.894,1.367-1.789,2.053-2.682c0.029-0.038,0.08-0.061,0.229-0.172
		c-0.095,0.198-0.126,0.291-0.178,0.371c-1.279,1.941-2.561,3.881-3.84,5.821c-0.698,1.06-1.393,2.122-2.092,3.182
		c-0.107,0.164-0.207,0.342-0.344,0.478C99.892,11.874,99.234,12.5,98.579,13.13z"/>
	<path fill-rule="evenodd" clip-rule="evenodd" fill="#FFFFFF" d="M116.265,15.975c-0.183,0.064-0.361,0.143-0.548,0.193
		c-3.399,0.917-6.799,1.831-10.198,2.744c-0.138,0.037-0.279,0.07-0.42,0.079c-0.748,0.045-1.498,0.084-2.247,0.12
		c-0.114,0.006-0.231-0.016-0.387-0.108c0.047-0.023,0.091-0.051,0.14-0.068c1.275-0.461,2.535-0.956,3.887-1.189
		c2.183-0.377,4.354-0.819,6.529-1.235c1.068-0.204,2.137-0.41,3.204-0.616C116.239,15.921,116.251,15.947,116.265,15.975z"/>
	<path fill-rule="evenodd" clip-rule="evenodd" fill="#FFFFFF" d="M100.436,35.837c0.789,0.844,1.744,1.507,2.454,2.442
		c1.187,1.564,2.42,3.094,3.633,4.64c0.935,1.193,1.866,2.39,2.756,3.645c-0.07-0.048-0.152-0.084-0.208-0.145
		c-1.767-1.941-3.53-3.886-5.296-5.828c-0.637-0.7-1.315-1.366-1.9-2.107c-0.428-0.541-0.736-1.177-1.093-1.773
		c-0.154-0.259-0.295-0.525-0.441-0.788C100.373,35.894,100.404,35.865,100.436,35.837z"/>
	<path fill-rule="evenodd" clip-rule="evenodd" fill="#FFFFFF" d="M103.804,20.944c1.137-0.344,2.238-0.797,3.435-0.953
		c1.329-0.175,2.651-0.397,3.979-0.593c1.503-0.221,3.006-0.435,4.509-0.651c0.58-0.084,1.158-0.17,1.757-0.179
		c-0.094,0.037-0.185,0.089-0.28,0.11c-2.532,0.567-5.064,1.129-7.597,1.695c-0.942,0.21-1.883,0.435-2.827,0.637
		c-0.224,0.049-0.461,0.045-0.692,0.046c-0.75,0.006-1.5,0.002-2.251,0.002C103.826,21.021,103.815,20.982,103.804,20.944z"/>
	<path fill-rule="evenodd" clip-rule="evenodd" fill="#FFFFFF" d="M102.177,30.492c0.982,0.263,1.926,0.503,2.775,1.033
		c2.15,1.341,4.332,2.632,6.502,3.944c0.06,0.036,0.114,0.08,0.145,0.183c-0.119-0.045-0.244-0.08-0.359-0.135
		c-2.351-1.126-4.703-2.248-7.047-3.388c-0.314-0.153-0.597-0.383-0.867-0.607C102.93,31.193,102.558,30.837,102.177,30.492z"/>
	<path fill-rule="evenodd" clip-rule="evenodd" fill="#FFFFFF" d="M113.958,5.55c-0.365,0.292-0.73,0.583-1.097,0.875
		c-1.62,1.293-3.245,2.58-4.858,3.882c-0.422,0.341-0.871,0.619-1.379,0.81c-0.396,0.149-0.791,0.307-1.234,0.406
		c0.068-0.086,0.133-0.175,0.203-0.259c0.913-1.085,2.098-1.824,3.271-2.577c1.535-0.984,3.063-1.979,4.595-2.967
		c0.143-0.093,0.292-0.173,0.439-0.259C113.918,5.49,113.939,5.521,113.958,5.55z"/>
	<path fill-rule="evenodd" clip-rule="evenodd" fill="#FFFFFF" d="M113.054,42.308c-0.814-0.543-1.631-1.086-2.445-1.631
		c-0.711-0.478-1.403-0.986-2.135-1.43c-0.764-0.463-1.334-1.105-1.859-1.817c0.561,0.173,1.09,0.43,1.541,0.782
		c1.631,1.274,3.232,2.586,4.843,3.886c0.05,0.04,0.085,0.098,0.128,0.147C113.102,42.266,113.078,42.287,113.054,42.308z"/>
	<path fill-rule="evenodd" clip-rule="evenodd" fill="#FFFFFF" d="M116.75,7.829c0.118-0.217,0.32-0.27,0.57-0.219
		c-0.193,0.069-0.387,0.139-0.58,0.208C116.74,7.817,116.75,7.829,116.75,7.829z"/>
	<path fill-rule="evenodd" clip-rule="evenodd" fill="#FFFFFF" d="M124.56,33.979c0.168-0.086,0.314-0.074,0.412,0.14
		c-0.133-0.051-0.267-0.103-0.4-0.151C124.57,33.969,124.56,33.979,124.56,33.979z"/>
	<path fill-rule="evenodd" clip-rule="evenodd" fill="#FFFFFF" d="M113.375,39.791c0.126,0.019,0.251,0.037,0.376,0.056
		c-0.009,0.033-0.018,0.065-0.027,0.099c-0.111-0.057-0.223-0.113-0.336-0.169C113.386,39.778,113.375,39.791,113.375,39.791z"/>
	<path fill-rule="evenodd" clip-rule="evenodd" fill="#FFFFFF" d="M79.593,45.462c-0.049,0.584-0.099,1.168-0.149,1.751
		c-0.074,0.87-0.104,1.748-0.236,2.608c-0.171,1.11-0.411,2.211-0.645,3.311c-0.612,2.882-1.236,5.76-1.857,8.639
		c-0.474,2.2-0.951,4.399-1.425,6.599c-0.078,0.362-0.147,0.727-0.221,1.09c-0.035-0.005-0.071-0.01-0.106-0.016
		c0.052-0.369,0.096-0.74,0.159-1.107c0.553-3.238,1.111-6.476,1.666-9.714c0.47-2.743,0.928-5.489,1.413-8.23
		c0.115-0.648,0.313-1.282,0.479-1.921c0.248-0.949,0.503-1.897,0.755-2.846c0.017-0.063,0.04-0.125,0.06-0.187
		C79.521,45.446,79.557,45.454,79.593,45.462z"/>
	<path fill-rule="evenodd" clip-rule="evenodd" fill="#FFFFFF" d="M78.263,40.875c-0.146,0.73-0.289,1.463-0.438,2.192
		c-0.104,0.508-0.183,1.022-0.33,1.518c-0.264,0.89-0.55,1.773-0.863,2.646c-1.341,3.738-2.694,7.473-4.046,11.207
		c-0.462,1.277-0.936,2.551-1.477,3.81c0.022-0.115,0.032-0.234,0.067-0.345c0.668-2.153,1.344-4.304,2.01-6.457
		c0.794-2.564,1.58-5.13,2.373-7.694c0.333-1.074,0.63-2.163,1.024-3.215c0.452-1.204,0.993-2.374,1.498-3.558
		c0.019-0.045,0.064-0.079,0.098-0.119C78.207,40.865,78.235,40.87,78.263,40.875z"/>
	<path fill-rule="evenodd" clip-rule="evenodd" fill="#FFFFFF" d="M51.982,32.945c0.521-0.174,1.04-0.35,1.562-0.521
		c1.375-0.452,2.752-0.9,4.127-1.354c2.682-0.885,5.363-1.77,8.044-2.657c0.781-0.258,1.551-0.55,2.34-0.777
		c0.993-0.287,1.999-0.531,3.004-0.777c0.606-0.148,1.219-0.268,1.83-0.396c0.095-0.021,0.194-0.021,0.31,0.037
		c-0.09,0.048-0.177,0.103-0.27,0.144c-1.162,0.51-2.323,1.022-3.488,1.524c-0.211,0.091-0.441,0.141-0.664,0.203
		c-2.098,0.591-4.194,1.188-6.294,1.77c-2.668,0.74-5.34,1.466-8.009,2.203c-0.821,0.228-1.637,0.475-2.455,0.712
		C52.006,33.02,51.994,32.982,51.982,32.945z"/>
	<path fill-rule="evenodd" clip-rule="evenodd" fill="#FFFFFF" d="M72.693,23.396c-0.776,0.107-1.553,0.215-2.33,0.321
		c-0.495,0.067-0.989,0.15-1.487,0.192c-0.28,0.024-0.566-0.027-0.849-0.031c-1.073-0.018-2.146-0.022-3.22-0.047
		c-1.375-0.031-2.75-0.076-4.125-0.116c-1.304-0.039-2.607-0.077-3.911-0.12c-1.445-0.047-2.89-0.099-4.344-0.221
		c0.317-0.024,0.633-0.065,0.951-0.073c1.25-0.029,2.501-0.047,3.752-0.074c2.341-0.052,4.682-0.103,7.023-0.164
		c1.035-0.027,2.07-0.076,3.105-0.119c1.523-0.063,3.032,0.128,4.543,0.268c0.298,0.027,0.595,0.065,0.892,0.098
		C72.693,23.339,72.693,23.368,72.693,23.396z"/>
	<path fill-rule="evenodd" clip-rule="evenodd" fill="#FFFFFF" d="M73.969,28c-0.035,0.039-0.063,0.092-0.106,0.114
		c-0.975,0.524-1.939,1.071-2.933,1.558c-0.736,0.36-1.507,0.652-2.27,0.955c-1.894,0.749-3.792,1.485-5.688,2.229
		c-1.997,0.784-3.992,1.571-5.988,2.354c-0.113,0.045-0.231,0.074-0.383,0.033c0.465-0.224,0.927-0.455,1.397-0.67
		c2.08-0.952,4.165-1.895,6.243-2.851c1.979-0.91,3.948-1.847,5.934-2.743c0.451-0.204,0.953-0.295,1.434-0.427
		c0.773-0.212,1.548-0.413,2.322-0.619C73.943,27.956,73.956,27.979,73.969,28z"/>
	<path fill-rule="evenodd" clip-rule="evenodd" fill="#FFFFFF" d="M57.714,10.856c0.693,0.215,1.387,0.429,2.079,0.646
		c2.83,0.888,5.662,1.771,8.489,2.669c1.396,0.442,2.8,0.868,4.17,1.38c0.985,0.367,1.921,0.864,2.878,1.307
		c0.024,0.011,0.033,0.054,0.069,0.118c-0.103,0-0.187,0.014-0.266-0.002c-0.684-0.131-1.363-0.291-2.05-0.397
		c-1.557-0.24-2.961-0.928-4.414-1.471c-3.598-1.343-7.186-2.712-10.777-4.073c-0.072-0.027-0.136-0.076-0.204-0.115
		C57.697,10.897,57.706,10.877,57.714,10.856z"/>
	<path fill-rule="evenodd" clip-rule="evenodd" fill="#FFFFFF" d="M60.147,7.808c0.541,0.232,1.085,0.456,1.622,0.698
		c1.302,0.589,2.602,1.182,3.898,1.782c1.604,0.744,3.203,1.499,4.805,2.246c0.697,0.325,1.414,0.609,2.09,0.974
		c0.896,0.481,1.761,1.02,2.636,1.539c0.333,0.198,0.657,0.41,0.942,0.71c-0.4-0.121-0.802-0.236-1.199-0.366
		c-0.492-0.161-0.974-0.355-1.471-0.497c-0.574-0.163-1.09-0.438-1.611-0.717c-1.921-1.029-3.851-2.041-5.773-3.067
		c-1.481-0.79-2.955-1.595-4.433-2.391c-0.425-0.229-0.859-0.44-1.28-0.675c-0.09-0.05-0.144-0.164-0.213-0.249L60.147,7.808z"/>
	<path fill-rule="evenodd" clip-rule="evenodd" fill="#FFFFFF" d="M75.714,33.324c-0.796,0.962-1.537,1.977-2.401,2.871
		c-1.142,1.183-2.382,2.269-3.576,3.4c-0.805,0.763-1.602,1.533-2.406,2.297c-1.413,1.343-2.827,2.684-4.243,4.023
		c-0.097,0.092-0.209,0.167-0.385,0.179c0.233-0.254,0.464-0.511,0.701-0.763c1.754-1.859,3.51-3.718,5.263-5.579
		c1.299-1.379,2.577-2.779,3.9-4.135c0.445-0.456,0.997-0.811,1.507-1.201c0.52-0.399,1.049-0.786,1.574-1.179
		C75.67,33.267,75.692,33.296,75.714,33.324z"/>
	<path fill-rule="evenodd" clip-rule="evenodd" fill="#FFFFFF" d="M73.023,21.777c-0.099,0.014-0.197,0.035-0.296,0.039
		c-1.034,0.036-2.069,0.107-3.103,0.091c-0.638-0.01-1.273-0.154-1.91-0.24c-3.273-0.446-6.546-0.895-9.82-1.339
		c-0.743-0.101-1.488-0.188-2.231-0.287c-0.203-0.027-0.402-0.081-0.588-0.211c0.63,0.041,1.261,0.074,1.891,0.124
		c1.619,0.126,3.238,0.259,4.857,0.39c1.637,0.132,3.274,0.265,4.912,0.396c0.872,0.069,1.752,0.085,2.615,0.215
		c1.232,0.186,2.453,0.454,3.678,0.687C73.026,21.687,73.024,21.731,73.023,21.777z"/>
	<path fill-rule="evenodd" clip-rule="evenodd" fill="#FFFFFF" d="M67.448,53.657c0.219-0.384,0.438-0.769,0.657-1.153
		c1.523-2.673,3.045-5.347,4.57-8.02c0.647-1.134,1.26-2.29,1.961-3.39c0.439-0.689,1.011-1.295,1.528-1.935
		c0.278-0.345,0.566-0.682,0.916-0.985c-0.023,0.077-0.036,0.16-0.071,0.232c-0.436,0.902-0.855,1.813-1.32,2.699
		c-0.306,0.584-0.665,1.144-1.025,1.697c-1.902,2.924-3.814,5.842-5.72,8.765c-0.467,0.716-0.924,1.438-1.386,2.158
		C67.522,53.704,67.485,53.681,67.448,53.657z"/>
	<path fill-rule="evenodd" clip-rule="evenodd" fill="#FFFFFF" d="M64.803,2.08c1.3,1.089,2.601,2.178,3.901,3.267
		c1.547,1.296,3.075,2.616,4.648,3.88c1.51,1.214,2.87,2.566,4.15,4.136c-0.135-0.048-0.207-0.06-0.262-0.095
		c-0.812-0.522-1.64-1.021-2.424-1.583c-0.461-0.33-0.856-0.754-1.27-1.147c-1.798-1.713-3.59-3.432-5.389-5.145
		c-1.035-0.985-2.077-1.965-3.121-2.941c-0.103-0.097-0.243-0.153-0.365-0.229C64.715,2.176,64.759,2.128,64.803,2.08z"/>
	<path fill-rule="evenodd" clip-rule="evenodd" fill="#FFFFFF" d="M74.596,31.905c-1.034,1.042-2.144,1.958-3.418,2.667
		c-1.734,0.965-3.447,1.967-5.168,2.955c-1.008,0.579-2.012,1.164-3.02,1.743c-0.087,0.051-0.183,0.087-0.326,0.054
		c0.217-0.163,0.429-0.335,0.653-0.487c2.454-1.67,4.918-3.326,7.362-5.012c0.964-0.664,1.976-1.211,3.086-1.58
		C74.049,32.15,74.319,32.02,74.596,31.905z"/>
	<path fill-rule="evenodd" clip-rule="evenodd" fill="#FFFFFF" d="M77.038,14.57c-0.625-0.281-1.13-0.537-1.656-0.738
		c-0.902-0.346-1.627-0.957-2.381-1.524c-1.958-1.473-3.913-2.947-5.866-4.425c-0.57-0.431-1.131-0.873-1.695-1.313
		c-0.065-0.051-0.122-0.111-0.136-0.237c0.184,0.119,0.368,0.238,0.552,0.357c1.607,1.037,3.213,2.075,4.821,3.111
		c1.382,0.891,2.785,1.752,4.139,2.684c0.613,0.423,1.134,0.98,1.688,1.485C76.667,14.12,76.8,14.301,77.038,14.57z"/>
	<path fill-rule="evenodd" clip-rule="evenodd" fill="#FFFFFF" d="M74.71,18.399c-0.155,0-0.31,0.006-0.465-0.001
		c-0.571-0.021-1.143-0.051-1.714-0.07c-0.854-0.027-1.638-0.355-2.448-0.564c-2.249-0.581-4.489-1.196-6.731-1.803
		c-0.807-0.219-1.609-0.45-2.393-0.77c0.543,0.099,1.088,0.191,1.63,0.296c3.104,0.596,6.208,1.194,9.312,1.794
		c0.123,0.023,0.245,0.054,0.362,0.096c0.822,0.296,1.644,0.596,2.465,0.894C74.723,18.313,74.717,18.356,74.71,18.399z"/>
	<path fill-rule="evenodd" clip-rule="evenodd" fill="#FFFFFF" d="M58.426,28.079c0.16-0.055,0.318-0.119,0.481-0.163
		c2.776-0.75,5.552-1.497,8.329-2.245c0.534-0.145,1.064-0.309,1.604-0.427c0.467-0.103,0.943-0.182,1.42-0.222
		c0.639-0.055,1.282-0.063,1.958-0.021c-0.087,0.056-0.168,0.13-0.263,0.165c-0.668,0.253-1.331,0.526-2.012,0.737
		c-0.561,0.174-1.142,0.287-1.72,0.398c-2.208,0.428-4.419,0.843-6.628,1.266c-0.964,0.185-1.926,0.378-2.889,0.563
		c-0.084,0.017-0.175,0.002-0.263,0.002C58.438,28.114,58.432,28.097,58.426,28.079z"/>
	<path fill-rule="evenodd" clip-rule="evenodd" fill="#FFFFFF" d="M67.174,46.12c0.723-0.931,1.444-1.863,2.17-2.792
		c0.859-1.098,1.724-2.191,2.584-3.288c0.695-0.887,1.344-1.814,2.092-2.653c0.645-0.724,1.402-1.348,2.109-2.017
		c0.032,0.024,0.064,0.049,0.096,0.073c-0.25,0.443-0.529,0.872-0.745,1.331c-0.484,1.024-1.287,1.796-2.027,2.616
		c-1.546,1.711-3.105,3.41-4.66,5.113c-0.514,0.563-1.029,1.127-1.544,1.69C67.224,46.17,67.199,46.145,67.174,46.12z"/>
	<path fill-rule="evenodd" clip-rule="evenodd" fill="#FFFFFF" d="M59.464,17.416c1.234,0.186,2.468,0.375,3.703,0.558
		c2.191,0.322,4.381,0.646,6.573,0.957c0.792,0.112,2.84,0.695,3.434,1.011c-0.056,0.022-0.1,0.056-0.143,0.056
		c-0.858,0.004-1.72,0.048-2.574-0.012c-0.564-0.039-1.119-0.226-1.677-0.352c-2.948-0.661-5.896-1.324-8.844-1.987
		c-0.169-0.038-0.338-0.082-0.507-0.124C59.44,17.487,59.452,17.451,59.464,17.416z"/>
	<path fill-rule="evenodd" clip-rule="evenodd" fill="#FFFFFF" d="M78.018,11.967c-1.086-0.777-1.871-1.779-2.493-2.946
		c-1.04-1.954-2.157-3.866-3.24-5.796c-0.047-0.085-0.082-0.178-0.045-0.312c0.25,0.357,0.5,0.714,0.749,1.071
		c1.297,1.859,2.605,3.712,3.884,5.584c0.298,0.438,0.504,0.938,0.734,1.419C77.76,11.306,77.882,11.64,78.018,11.967z"/>
	<path fill-rule="evenodd" clip-rule="evenodd" fill="#FFFFFF" d="M74.002,30.047c-0.811,1.041-1.834,1.738-3.009,2.27
		c-2.034,0.92-4.031,1.922-6.043,2.888c-0.092,0.044-0.188,0.079-0.322,0.057c0.087-0.064,0.169-0.138,0.262-0.193
		c2.322-1.408,4.631-2.84,6.979-4.202C72.519,30.487,73.288,30.314,74.002,30.047z"/>
	<path fill-rule="evenodd" clip-rule="evenodd" fill="#FFFFFF" d="M70.768,53.881c0.377-0.924,0.755-1.847,1.13-2.771
		c0.599-1.477,1.167-2.966,1.805-4.425c0.327-0.747,0.778-1.44,1.274-2.131c-0.006,0.108,0.002,0.22-0.022,0.324
		c-0.111,0.47-0.205,0.946-0.358,1.402c-0.135,0.403-0.33,0.789-0.519,1.172c-1.027,2.087-2.061,4.172-3.093,6.256
		c-0.039,0.078-0.088,0.15-0.133,0.226C70.825,53.916,70.796,53.898,70.768,53.881z"/>
	<path fill-rule="evenodd" clip-rule="evenodd" fill="#FFFFFF" d="M62.363,25.354c-0.698,0.116-1.356,0.394-2.077,0.424
		c-1.642,0.07-3.284,0.153-4.927,0.218c-0.544,0.021-1.09,0.004-1.646-0.02c0.348-0.053,0.695-0.109,1.044-0.156
		c1.841-0.248,3.679-0.529,5.526-0.723c0.679-0.07,1.379,0.068,2.07,0.111C62.356,25.257,62.359,25.306,62.363,25.354z"/>
	<path fill-rule="evenodd" clip-rule="evenodd" fill="#FFFFFF" d="M60.159,7.795c-0.208-0.054-0.416-0.108-0.624-0.162
		c0.271-0.12,0.436,0.039,0.611,0.176C60.147,7.808,60.159,7.795,60.159,7.795z"/>
	<path fill-rule="evenodd" clip-rule="evenodd" fill="#FFFFFF" d="M64.036,108.738c0.229,0,0.442-0.021,0.65,0.004
		c0.462,0.054,0.754,0.266,0.8,0.729c0.08,0.813,0.142,1.641,0.089,2.453c-0.048,0.746-0.574,0.991-1.54,0.813
		C64.036,111.437,64.036,110.123,64.036,108.738z"/>
	<path fill-rule="evenodd" clip-rule="evenodd" fill="#FFFFFF" d="M140.945,115.47c0.185-1.001,0.363-1.972,0.543-2.942
		c0.031-0.003,0.064-0.005,0.098-0.008c0.213,0.966,0.425,1.931,0.65,2.95C141.804,115.47,141.412,115.47,140.945,115.47z"/>
</g>
</svg>
